<?xml version="1.0" encoding="UTF-8"?>
<svg version="1.1" xmlns="http://www.w3.org/2000/svg" viewBox="120 120 260 260" width="500" height="500">
<path d="M0 0 C1.61745676 -0.00571184 3.23490949 -0.01267924 4.85235596 -0.02079773 C9.22025754 -0.03865531 13.58795741 -0.03757466 17.95588446 -0.03185534 C21.61367283 -0.02875244 25.27142308 -0.03486821 28.92920601 -0.04089409 C37.56449028 -0.0549137 46.19967557 -0.0533997 54.83496094 -0.04199219 C63.71801102 -0.03051605 72.60075901 -0.04458399 81.4837693 -0.07138866 C89.13422283 -0.09360239 96.78458192 -0.10017022 104.43506539 -0.09431225 C108.99387166 -0.0909547 113.55248439 -0.09327716 118.11126328 -0.11056328 C122.40096159 -0.12612093 126.69021523 -0.12198004 130.97989655 -0.10325813 C132.54549454 -0.09959637 134.11112613 -0.10260951 135.67669296 -0.11314392 C147.42692345 -0.18611407 157.470358 1.65597688 167.81689453 7.40405273 C167.81689453 8.06405273 167.81689453 8.72405273 167.81689453 9.40405273 C168.54392578 9.64381836 169.27095703 9.88358398 170.02001953 10.13061523 C173.21547619 11.58552986 175.10275748 13.29010894 177.56689453 15.77905273 C178.73478516 16.9353418 178.73478516 16.9353418 179.92626953 18.11499023 C181.75949439 20.33455587 182.43227096 21.59630067 182.81689453 24.40405273 C183.47689453 24.40405273 184.13689453 24.40405273 184.81689453 24.40405273 C185.61752558 26.0664317 186.40689821 27.73423398 187.19189453 29.40405273 C187.85318359 30.79624023 187.85318359 30.79624023 188.52783203 32.21655273 C191.98441424 40.76373783 192.12760107 48.70496922 192.15161133 57.82788086 C192.1625627 59.2809207 192.17435527 60.73395441 192.18692017 62.1869812 C192.21838844 66.11718842 192.23772938 70.04736925 192.25454307 73.97766304 C192.27399841 78.11019097 192.30369646 82.24264693 192.33198547 86.37512207 C192.37799628 93.3219134 192.41639477 100.26871413 192.44995117 107.21557617 C192.48862675 115.2089185 192.53790418 123.20213872 192.59328145 131.19538164 C192.6466612 138.92030067 192.69368332 146.64524497 192.73746681 154.370224 C192.75602647 157.63933201 192.77650578 160.90841925 192.79855919 164.17750549 C192.82426872 168.04514227 192.84427247 171.91277129 192.86018753 175.78046036 C192.86679533 177.18635676 192.87517793 178.59224636 192.8856411 179.99811935 C192.93887849 187.32151531 192.83902981 194.62380536 192.45027161 201.93664551 C192.38331998 203.20166649 192.31636835 204.46668747 192.24738789 205.77004242 C190.58869664 219.77188713 182.27482349 231.42074261 171.81689453 240.40405273 C159.99951505 249.13610654 147.74481898 251.00326189 133.40673828 250.92163086 C131.78898492 250.92706304 130.17123651 250.9341918 128.55349731 250.94287109 C124.19391172 250.96097734 119.83470829 250.95408994 115.47511673 250.94135475 C110.89233695 250.93116074 106.30958784 250.94063808 101.72680664 250.94689941 C94.03379499 250.9541573 86.34093742 250.9446371 78.64794922 250.92553711 C69.77961471 250.90377194 60.91164817 250.91082463 52.04332256 250.93284273 C44.40131089 250.9510499 36.75940938 250.95352916 29.117383 250.94308805 C24.56532582 250.93688225 20.01344106 250.93593662 15.46139526 250.94923401 C11.17985865 250.96086969 6.89879209 250.95262749 2.61730576 250.92965698 C1.05493827 250.92441078 -0.50746943 250.92581271 -2.0698204 250.93470764 C-18.29780493 251.01851336 -31.29140054 246.93995553 -43.37060547 235.77905273 C-53.42016003 225.0884772 -58.01068408 213.64003416 -58.74121094 199.20678711 C-58.78303938 198.38669914 -58.82486782 197.56661118 -58.86796379 196.72167206 C-59.40217977 185.04931438 -59.32696776 173.36710089 -59.31591797 161.68530273 C-59.31659397 159.13155101 -59.31756645 156.57779936 -59.31881714 154.02404785 C-59.32028231 148.69563113 -59.3182783 143.36723184 -59.31347656 138.03881836 C-59.30805967 131.95924514 -59.30978453 125.87970561 -59.31530297 119.80013323 C-59.32046949 113.8612128 -59.31981845 107.92230469 -59.31692123 101.98338318 C-59.31626506 99.49930313 -59.31703319 97.01522219 -59.31940079 94.53114319 C-59.32899205 81.63601939 -59.22685809 68.74568655 -58.86230469 55.85522461 C-58.8403409 54.76667427 -58.81837711 53.67812393 -58.79574776 52.55658722 C-58.46046599 42.55856377 -56.66506222 33.47787209 -50.93310547 25.15405273 C-50.5325293 24.55834473 -50.13195312 23.96263672 -49.71923828 23.34887695 C-37.3941853 5.41213784 -20.92558612 -0.06705577 0 0 Z " fill="#212834" transform="translate(183.18310546875,124.595947265625)"/>
<path d="M0 0 C17.35989889 15.05818706 29.28304163 38.1020188 31 61 C32.60627887 90.81277731 25.00488782 113.75747487 5.72265625 136.7109375 C-6.2256578 149.39350549 -23.83839455 160.35965945 -41 164 C-41.92167969 164.20238281 -42.84335937 164.40476562 -43.79296875 164.61328125 C-68.99460006 169.30864222 -95.15429692 165.31231058 -116.515625 150.8125 C-137.72510502 135.3389171 -154.29988664 113.76272272 -158.6171875 87.203125 C-161.73229602 58.11711173 -155.82654123 33.42337752 -137.6875 10.375 C-122.29603472 -7.93823496 -100.14568383 -21.50375051 -76.10595703 -23.83886719 C-46.93193296 -26.07105544 -22.77255801 -18.48341768 0 0 Z " fill="#9173D9" transform="translate(314,179)"/>
<path d="M0 0 C1.16402344 0.65355469 1.16402344 0.65355469 2.3515625 1.3203125 C3.79402344 2.06667969 3.79402344 2.06667969 5.265625 2.828125 C11.51574373 6.23008836 16.68581518 10.11181142 21.84375 14.99609375 C24.47740316 17.43694052 27.22407972 19.65460406 30.0390625 21.8828125 C38.74757865 28.99681161 46.85038708 37.55935432 48.828125 49.1015625 C49.09939136 57.28887454 45.40766316 62.66028116 40.2890625 68.6953125 C39.84240234 69.24058594 39.39574219 69.78585937 38.93554688 70.34765625 C37.78975802 71.71438197 36.57539625 73.02300674 35.3515625 74.3203125 C34.6915625 74.3203125 34.0315625 74.3203125 33.3515625 74.3203125 C33.3515625 74.9803125 33.3515625 75.6403125 33.3515625 76.3203125 C30.93163443 78.90259996 28.07618381 81.06936817 25.3515625 83.3203125 C24.82046875 83.7622998 24.289375 84.20428711 23.7421875 84.65966797 C4.793092 100.37055937 -16.23997575 116.14576263 -41.9453125 115.76171875 C-48.39418065 114.99302455 -52.99229801 112.24144967 -57.33203125 107.46875 C-62.28142834 100.87890118 -62.58694985 94.30222334 -61.6484375 86.3203125 C-58.39552557 77.72590311 -51.17660193 70.42759418 -43.6484375 65.3203125 C-42.9884375 65.3203125 -42.3284375 65.3203125 -41.6484375 65.3203125 C-41.4009375 64.7221875 -41.1534375 64.1240625 -40.8984375 63.5078125 C-39.48399659 61.03254091 -37.91983562 59.98600446 -35.6484375 58.3203125 C-35.6484375 57.6603125 -35.6484375 57.0003125 -35.6484375 56.3203125 C-37.04255859 55.55847656 -37.04255859 55.55847656 -38.46484375 54.78125 C-56.05215565 45.04219289 -56.05215565 45.04219289 -58.6484375 38.3203125 C-59.7408701 29.73034245 -58.82996173 23.27914055 -53.6484375 16.3203125 C-53.19082031 15.69511719 -52.73320312 15.06992188 -52.26171875 14.42578125 C-40.53417453 -0.32200723 -17.71166676 -8.70367129 0 0 Z " fill="#FDFDFE" transform="translate(259.6484375,193.6796875)"/>
<path d="M0 0 C4.44063849 1.49132137 7.37398977 3.29573849 10.5 6.8125 C12.29820095 10.63367702 12.68279121 12.82738702 12 17 C9.8272578 19.63016161 8.05326212 21.47336894 5 23 C-0.9768973 23.05976897 -5.37366922 21.96542638 -10 18 C-12.88788155 14.53454214 -13.66103038 11.36472905 -13.4765625 6.9375 C-13 5 -13 5 -10.4375 2 C-6.38465743 -0.3580175 -4.61424256 -0.71600316 0 0 Z " fill="#9175D7" transform="translate(257,214)"/>
<path d="M0 0 C0.66 0.33 1.32 0.66 2 1 C-0.48940965 3.82695673 -3.2389158 5.33211195 -6.5625 7.0625 C-10.57205033 9.13325518 -10.57205033 9.13325518 -14 12 C-16.56640625 12.59765625 -16.56640625 12.59765625 -19.5625 13.0625 C-23.09095166 13.35968163 -23.09095166 13.35968163 -26 15 C-28.92952805 15.15418569 -31.81919425 15.23173953 -34.75 15.25 C-35.56210938 15.270625 -36.37421875 15.29125 -37.2109375 15.3125 C-42.00175214 15.34371052 -45.06016631 15.04296098 -49 12 C-48.67 11.34 -48.34 10.68 -48 10 C-47.48308594 10.32226562 -46.96617187 10.64453125 -46.43359375 10.9765625 C-38.34515179 14.37812236 -27.40091285 12.15492977 -19.421875 9.42578125 C-14.54978701 7.39574459 -9.85255865 5.05176347 -5.20336914 2.5546875 C-3.49663589 1.64884026 -1.75084277 0.81734156 0 0 Z " fill="#947ECA" transform="translate(258,296)"/>
<path d="M0 0 C0.33 0 0.66 0 1 0 C5.4311565 21.8341663 0.61729572 42.46843743 -9 62 C-9.66 61.34 -10.32 60.68 -11 60 C-10.75765625 59.48953125 -10.5153125 58.9790625 -10.265625 58.453125 C-6.34676941 49.95222288 -3.037856 41.340704 -2 32 C-1.67 31.67 -1.34 31.34 -1 31 C-0.84111908 28.71011219 -0.74861927 26.41556559 -0.68359375 24.12109375 C-0.66281265 23.4344313 -0.64203156 22.74776886 -0.62062073 22.04029846 C-0.55505857 19.83947065 -0.49620985 17.63852025 -0.4375 15.4375 C-0.39432108 13.94855486 -0.350707 12.45962227 -0.30664062 10.97070312 C-0.1993707 7.31393447 -0.09812228 3.65702682 0 0 Z " fill="#8270BD" transform="translate(343,234)"/>
<path d="M0 0 C-3.46708038 0.99693023 -6.53907939 0.9761799 -10.14355469 0.83300781 C-21.79400374 0.42261073 -30.5308637 3.07136368 -40 10 C-41.66026356 11.01059521 -43.32470102 12.01453001 -45 13 C-45 12.01 -45 11.02 -45 10 C-40.77142857 6 -40.77142857 6 -37 6 C-36.67 5.01 -36.34 4.02 -36 3 C-35.195625 2.87625 -34.39125 2.7525 -33.5625 2.625 C-32.716875 2.41875 -31.87125 2.2125 -31 2 C-30.67 1.34 -30.34 0.68 -30 0 C-20.7080474 -3.21644513 -9.207892 -3.42619237 0 0 Z " fill="#9782C7" transform="translate(256,191)"/>
<path d="M0 0 C5.92803635 -0.49400303 10.08678193 0.55755003 15 4 C17.90340647 7.26633228 18.88163677 9.25036619 19.5625 13.5625 C18.85439182 17.88982776 17.35755821 19.28197669 14 22 C11.52756353 23.23621824 10.22682061 22.98408601 7.5 22.6875 C6.30890625 22.56955078 6.30890625 22.56955078 5.09375 22.44921875 C3 22 3 22 1 20 C3.49064888 19.31292445 5.37886292 19 8 19 C8 19.66 8 20.32 8 21 C11.96 19.515 11.96 19.515 16 18 C16.76242823 12.2860245 16.76242823 12.2860245 14.7578125 7.13671875 C10.39035595 3.08122339 5.81938417 1.76536118 0 1 C0 0.67 0 0.34 0 0 Z " fill="#917DC2" transform="translate(250,214)"/>
<path d="M0 0 C1.7325 0.3403125 1.7325 0.3403125 3.5 0.6875 C0.08236672 2.96592219 -2.97602529 3.60598058 -6.9375 4.3125 C-7.670896 4.44438721 -8.40429199 4.57627441 -9.15991211 4.7121582 C-18.24050304 6.18265691 -27.33275613 5.94346234 -36.5 5.6875 C-34.01274373 3.20024373 -33.20476877 3.42807217 -29.7734375 3.37890625 C-28.82339844 3.35376953 -27.87335938 3.32863281 -26.89453125 3.30273438 C-24.9050059 3.26798846 -22.91541759 3.23665481 -20.92578125 3.20898438 C-14.066682 3.01973601 -6.36477162 -1.250223 0 0 Z " fill="#836EBF" transform="translate(276.5,339.3125)"/>
<path d="M0 0 C0.66 0 1.32 0 2 0 C2.87973605 6.78653523 3.15852048 13.41011863 3.125 20.25 C3.12089111 21.26054443 3.11678223 22.27108887 3.11254883 23.31225586 C2.94839389 45.3143128 2.94839389 45.3143128 -1 51 C-1.99 51.495 -1.99 51.495 -3 52 C-2.52121172 49.43742878 -2.04198207 46.87494141 -1.5625 44.3125 C-1.42779297 43.59126953 -1.29308594 42.87003906 -1.15429688 42.12695312 C-0.95610352 41.06831055 -0.95610352 41.06831055 -0.75390625 39.98828125 C-0.625 39.29017334 -0.49609375 38.59206543 -0.36328125 37.87280273 C-0.08645993 36.44572188 0.24054094 35.02827834 0.58984375 33.6171875 C1.25644565 29.36363249 1.14317286 25.11038109 1.125 20.8125 C1.12886719 19.91724609 1.13273437 19.02199219 1.13671875 18.09960938 C1.12792653 12.01099623 0.71698483 6.0453744 0 0 Z " fill="#2B264D" transform="translate(343,230)"/>
<path d="M0 0 C3.3 0.33 6.6 0.66 10 1 C10 1.33 10 1.66 10 2 C9.15179688 2.08636719 8.30359375 2.17273438 7.4296875 2.26171875 C-4.9052244 3.73919721 -15.76507957 7.76995083 -27 13 C-26.40625 11.1640625 -26.40625 11.1640625 -25 9 C-22.03125 7.5859375 -22.03125 7.5859375 -18.5 6.375 C-13.81894465 4.88201059 -13.81894465 4.88201059 -10 2 C-7.6171875 1.8046875 -7.6171875 1.8046875 -4.875 1.875 C-3.96492188 1.89304688 -3.05484375 1.91109375 -2.1171875 1.9296875 C-1.41851562 1.95289063 -0.71984375 1.97609375 0 2 C0 1.34 0 0.68 0 0 Z " fill="#2A264B" transform="translate(230,154)"/>
<path d="M0 0 C0.99 0.33 1.98 0.66 3 1 C-4.20741115 10.30411257 -10.95104375 17.77921756 -21 24 C-21 22.68 -21 21.36 -21 20 C-19.35 19.67 -17.7 19.34 -16 19 C-16 18.34 -16 17.68 -16 17 C-15.34 17 -14.68 17 -14 17 C-14 16.34 -14 15.68 -14 15 C-12.8553125 14.3503125 -12.8553125 14.3503125 -11.6875 13.6875 C-8.66296413 11.78837283 -7.79070465 10.01163964 -6 7 C-5.01 7 -4.02 7 -3 7 C-2.87625 6.21625 -2.7525 5.4325 -2.625 4.625 C-2 2 -2 2 0 0 Z " fill="#8674C1" transform="translate(325,304)"/>
<path d="M0 0 C4.02951393 3.7432252 6.92492169 7.64721125 9.8125 12.3125 C10.21919922 12.95767578 10.62589844 13.60285156 11.04492188 14.26757812 C12.0358257 15.84136655 13.01875372 17.42017212 14 19 C13.34 19.66 12.68 20.32 12 21 C11.70867187 20.46890625 11.41734375 19.9378125 11.1171875 19.390625 C8.92878784 15.61942055 7.47049151 13.30762907 3.75 10.875 C1 9 1 9 0.125 5.9375 C0.04083765 3.95968466 0 1.97960521 0 0 Z " fill="#8572BD" transform="translate(321,187)"/>
<path d="M0 0 C0.9603212 2.55699981 1.17504902 3.60863025 0.0390625 6.1484375 C-0.42757812 6.88320312 -0.89421875 7.61796875 -1.375 8.375 C-3.50449793 11.94382617 -4.67595247 14.78738206 -5 19 C-5.66 19 -6.32 19 -7 19 C-7.28875 19.94875 -7.5775 20.8975 -7.875 21.875 C-9 25 -9 25 -11 27 C-9.66491607 17.20454727 -4.99809075 8.42231462 0 0 Z " fill="#8270BB" transform="translate(169,199)"/>
<path d="M0 0 C0.99 0.33 1.98 0.66 3 1 C-10.23923879 9.29179882 -10.23923879 9.29179882 -16 11 C-16.99 10.67 -17.98 10.34 -19 10 C-16.03 8.35 -13.06 6.7 -10 5 C-10 3.68 -10 2.36 -10 1 C-9.36191406 1.01160156 -8.72382813 1.02320313 -8.06640625 1.03515625 C-7.24011719 1.04417969 -6.41382813 1.05320312 -5.5625 1.0625 C-4.32693359 1.07990234 -4.32693359 1.07990234 -3.06640625 1.09765625 C-1.00836062 1.23267348 -1.00836062 1.23267348 0 0 Z " fill="#8671C5" transform="translate(299,329)"/>
<path d="M0 0 C0.33 0 0.66 0 1 0 C1.01981934 0.60360352 1.03963867 1.20720703 1.06005859 1.82910156 C1.53441933 15.57770063 2.41027248 28.66672634 6 42 C5.34 41.67 4.68 41.34 4 41 C4 40.34 4 39.68 4 39 C3.34 39 2.68 39 2 39 C-0.11865386 25.96649546 -0.22520096 13.179453 0 0 Z " fill="#29244B" transform="translate(154,240)"/>
<path d="M0 0 C0.66 0.33 1.32 0.66 2 1 C1.41992188 1.51046875 0.83984375 2.0209375 0.2421875 2.546875 C-5.99382917 8.3506925 -9.63615944 14.20380483 -13 22 C-14.61967185 17.48581782 -12.98223108 14.56194133 -11.171875 10.33984375 C-8.8138367 5.63162729 -5.4772048 3.54111624 -1 1 C-0.67 0.67 -0.34 0.34 0 0 Z " fill="#8F7CC3" transform="translate(211,261)"/>
<path d="M0 0 C2.475 0.495 2.475 0.495 5 1 C5 1.66 5 2.32 5 3 C5.639375 3.12375 6.27875 3.2475 6.9375 3.375 C7.618125 3.58125 8.29875 3.7875 9 4 C9.33 4.66 9.66 5.32 10 6 C10.99 6.33 11.98 6.66 13 7 C14.03013277 8.64821244 15.03114628 10.31503702 16 12 C16.66 12.33 17.32 12.66 18 13 C18 13.66 18 14.32 18 15 C18.66 15.33 19.32 15.66 20 16 C16.49080723 16 16.18488914 15.58105022 13.75 13.26171875 C13.1415625 12.68873047 12.533125 12.11574219 11.90625 11.52539062 C11.2771875 10.91888672 10.648125 10.31238281 10 9.6875 C9.3709375 9.09259766 8.741875 8.49769531 8.09375 7.88476562 C5.3590473 5.29201254 2.65744861 2.67195652 0 0 Z " fill="#9781C8" transform="translate(274,202)"/>
<path d="M0 0 C2 1 2 1 3 3 C1.73461631 3.84158536 0.46246221 4.67299748 -0.8125 5.5 C-1.87404297 6.19609375 -1.87404297 6.19609375 -2.95703125 6.90625 C-5 8 -5 8 -8 8 C-8.33 9.65 -8.66 11.3 -9 13 C-10.65 12.67 -12.3 12.34 -14 12 C-9.73412126 7.45890328 -4.96387672 3.75264754 0 0 Z " fill="#8672C3" transform="translate(199,169)"/>
<path d="M0 0 C0.66 0.33 1.32 0.66 2 1 C1 3 0 5 -1 7 C-1.66 7 -2.32 7 -3 7 C-3.33 7.99 -3.66 8.98 -4 10 C-4.66 10 -5.32 10 -6 10 C-6.66 11.65 -7.32 13.3 -8 15 C-8.99 14.67 -9.98 14.34 -11 14 C-10.45730469 13.32453125 -9.91460937 12.6490625 -9.35546875 11.953125 C-8.64003906 11.06109375 -7.92460937 10.1690625 -7.1875 9.25 C-6.47980469 8.36828125 -5.77210938 7.4865625 -5.04296875 6.578125 C-3.32494998 4.41007071 -1.64626024 2.22271099 0 0 Z " fill="#2A2648" transform="translate(330,301)"/>
<path d="M0 0 C1.98 0.66 3.96 1.32 6 2 C6 3.32 6 4.64 6 6 C3.5 7.75 3.5 7.75 1 9 C0.63877119 7.68942607 0.28619689 6.37646376 -0.0625 5.0625 C-0.35833984 3.96615234 -0.35833984 3.96615234 -0.66015625 2.84765625 C-0.77230469 2.23792969 -0.88445312 1.62820312 -1 1 C-0.67 0.67 -0.34 0.34 0 0 Z " fill="#917DC9" transform="translate(218,247)"/>
<path d="M0 0 C2.30259931 2.85839915 3.86268345 5.60418038 5.25 9 C5.60578125 9.845625 5.9615625 10.69125 6.328125 11.5625 C7.05204912 14.18882935 6.9128421 15.47212957 6 18 C5.34 17.01 4.68 16.02 4 15 C3.01 15 2.02 15 1 15 C1.20625 13.906875 1.4125 12.81375 1.625 11.6875 C2.40346525 7.9161599 2.40346525 7.9161599 0 5 C-0.125 2.3125 -0.125 2.3125 0 0 Z " fill="#836FBE" transform="translate(335,208)"/>
<path d="M0 0 C0.66 0.33 1.32 0.66 2 1 C1.16855469 2.42892578 1.16855469 2.42892578 0.3203125 3.88671875 C-0.41163189 5.15354557 -1.14339305 6.42047827 -1.875 7.6875 C-2.23980469 8.31333984 -2.60460937 8.93917969 -2.98046875 9.58398438 C-4.93741197 12.98194942 -6.65607739 16.30067619 -8 20 C-8.33 20 -8.66 20 -9 20 C-8.33428153 12.01137833 -5.28353963 6.03833101 0 0 Z " fill="#2B264C" transform="translate(169,197)"/>
<path d="M0 0 C2.17734512 3.96838707 2.95158087 7.53240845 2 12 C-0.1683808 15.79134067 -2.92260786 18.92260786 -6 22 C-5.61495281 19.22766026 -5.35582003 17.42395578 -3.53125 15.25 C-1.518398 12.29233992 -1.27137346 9.77979583 -0.8125 6.25 C-0.65394531 5.07953125 -0.49539063 3.9090625 -0.33203125 2.703125 C-0.22246094 1.81109375 -0.11289062 0.9190625 0 0 Z " fill="#927CC8" transform="translate(308,240)"/>
<path d="M0 0 C0.49628906 0.37511719 0.99257812 0.75023437 1.50390625 1.13671875 C5.95741524 4.49163919 10.45004098 7.77711236 15 11 C14.67 11.66 14.34 12.32 14 13 C13.31292969 12.50628906 12.62585938 12.01257813 11.91796875 11.50390625 C11.01691406 10.86324219 10.11585938 10.22257812 9.1875 9.5625 C8.29417969 8.92441406 7.40085938 8.28632813 6.48046875 7.62890625 C4.02865666 5.86709732 4.02865666 5.86709732 1 5 C0.67 3.35 0.34 1.7 0 0 Z " fill="#282349" transform="translate(184,319)"/>
<path d="M0 0 C0.66 0.33 1.32 0.66 2 1 C1.60167969 1.56847656 1.20335937 2.13695312 0.79296875 2.72265625 C-2.38703409 7.35725893 -4.98935534 11.7499834 -7 17 C-7.99830834 14.40439832 -7.9890035 12.94501748 -7.4375 10.1875 C-5.60594242 6.12622015 -3.03192708 3.22261432 0 0 Z " fill="#907BC4" transform="translate(208,205)"/>
<path d="M0 0 C2.475 0.495 2.475 0.495 5 1 C5 1.66 5 2.32 5 3 C5.556875 3.268125 6.11375 3.53625 6.6875 3.8125 C9.19712523 5.10122647 11.59334236 6.52926478 14 8 C13.67 8.99 13.34 9.98 13 11 C10.83040701 9.35790421 8.66427468 7.71157832 6.5 6.0625 C5.87996094 5.59392578 5.25992187 5.12535156 4.62109375 4.64257812 C3.06233214 3.45209536 1.52890836 2.22858708 0 1 C0 0.67 0 0.34 0 0 Z " fill="#2D274F" transform="translate(301,169)"/>
<path d="M0 0 C4.50675859 2.2533793 4.86044222 3.06770398 6.75 7.5 C7.39195312 8.96953125 7.39195312 8.96953125 8.046875 10.46875 C9 13 9 13 9 15 C8.34 15 7.68 15 7 15 C4.69 10.05 2.38 5.1 0 0 Z " fill="#2B284C" transform="translate(331,200)"/>
<path d="M0 0 C3.93846154 3.32307692 3.93846154 3.32307692 4.25 6.75 C4.1675 7.4925 4.085 8.235 4 9 C4.66 9 5.32 9 6 9 C5.67 9.99 5.34 10.98 5 12 C2.5 9.9375 2.5 9.9375 0 7 C-0.3125 3.1875 -0.3125 3.1875 0 0 Z " fill="#8971CA" transform="translate(321,187)"/>
<path d="M0 0 C0 3.5595477 -0.61579539 4.44549506 -3 7 C-5.0625 7.875 -5.0625 7.875 -7 8 C-7.66 7.34 -8.32 6.68 -9 6 C-6.03 4.02 -3.06 2.04 0 0 Z " fill="#2D294E" transform="translate(305,327)"/>
<path d="M0 0 C1.4540625 0.0309375 1.4540625 0.0309375 2.9375 0.0625 C2.9375 0.7225 2.9375 1.3825 2.9375 2.0625 C4.9175 2.0625 6.8975 2.0625 8.9375 2.0625 C6.9375 4.0625 6.9375 4.0625 4.84375 4.109375 C4.0496875 4.01140625 3.255625 3.9134375 2.4375 3.8125 C1.24640625 3.68101562 1.24640625 3.68101562 0.03125 3.546875 C-2.0625 3.0625 -2.0625 3.0625 -4.0625 1.0625 C-3.0625 0.0625 -3.0625 0.0625 0 0 Z " fill="#9B87CC" transform="translate(255.0625,232.9375)"/>
<path d="M0 0 C5.87711622 -0.48975968 10.09611773 0.62928552 15 4 C15.99 5.485 15.99 5.485 17 7 C14.59497425 6.57053112 13.19390681 6.16517988 11.3125 4.5625 C7.85146889 2.22396546 4.06495966 1.73829395 0 1 C0 0.67 0 0.34 0 0 Z " fill="#9886C6" transform="translate(250,214)"/>
<path d="M0 0 C0.66 0.99 1.32 1.98 2 3 C-0.97 5.31 -3.94 7.62 -7 10 C-7.66 9.34 -8.32 8.68 -9 8 C-7.06745228 5.9754262 -5.36841312 4.57894208 -3 3 C-2.01 3 -1.02 3 0 3 C0 2.01 0 1.02 0 0 Z " fill="#8F78C8" transform="translate(219,194)"/>
<path d="M0 0 C0.99 0.33 1.98 0.66 3 1 C2.06409496 2.1055189 1.12620142 3.20935453 0.1875 4.3125 C-0.33457031 4.92738281 -0.85664063 5.54226562 -1.39453125 6.17578125 C-2.87172469 7.85424679 -4.40039131 9.43882034 -6 11 C-6 6.9666466 -4.39120082 5.16482462 -2 2 C-1.34 2 -0.68 2 0 2 C0 1.34 0 0.68 0 0 Z " fill="#2E2A4F" transform="translate(182,179)"/>
<path d="M0 0 C4.81033104 2.54664585 8.32442148 4.99027798 12 9 C10.35 8.67 8.7 8.34 7 8 C7 7.34 7 6.68 7 6 C6.21625 5.690625 5.4325 5.38125 4.625 5.0625 C2 4 2 4 0 3 C0 2.01 0 1.02 0 0 Z " fill="#8675C1" transform="translate(298,168)"/>
<path d="M0 0 C0.66 0 1.32 0 2 0 C3.35278115 1.98689731 4.68568305 3.98745218 6 6 C6.66 6.33 7.32 6.66 8 7 C7.67 7.99 7.34 8.98 7 10 C6.01 10 5.02 10 4 10 C3.71125 9.030625 3.4225 8.06125 3.125 7.0625 C2.35785318 3.89335797 2.35785318 3.89335797 0 3 C0 2.01 0 1.02 0 0 Z " fill="#937ECA" transform="translate(198,296)"/>
<path d="M0 0 C1.50539661 0.94983358 3.00420347 1.91011891 4.5 2.875 C5.75296875 3.67550781 5.75296875 3.67550781 7.03125 4.4921875 C7.6809375 4.98976562 8.330625 5.48734375 9 6 C9 6.66 9 7.32 9 8 C7.35 7.67 5.7 7.34 4 7 C3.67 6.01 3.34 5.02 3 4 C2.01 4 1.02 4 0 4 C0 2.68 0 1.36 0 0 Z " fill="#927BC7" transform="translate(204,237)"/>
<path d="M0 0 C4.55015893 1.51671964 6.50057264 5.16891053 9 9 C8.34 9.66 7.68 10.32 7 11 C5.83051998 9.35616456 4.6644855 7.70987731 3.5 6.0625 C2.8503125 5.14597656 2.200625 4.22945312 1.53125 3.28515625 C0 1 0 1 0 0 Z " fill="#2C274C" transform="translate(322,187)"/>
<path d="M0 0 C1.9375 0.75 1.9375 0.75 4 2 C4.75 4.125 4.75 4.125 5 6 C6.32 6.33 7.64 6.66 9 7 C8.67 7.66 8.34 8.32 8 9 C5.03 7.02 2.06 5.04 -1 3 C-0.67 2.01 -0.34 1.02 0 0 Z " fill="#8771C3" transform="translate(195,324)"/>
<path d="M0 0 C0 0.99 0 1.98 0 3 C-1.65 3 -3.3 3 -5 3 C-5 3.66 -5 4.32 -5 5 C-8 6 -8 6 -10.1875 5.0625 C-10.785625 4.711875 -11.38375 4.36125 -12 4 C-10.3767313 3.3291288 -8.75132422 2.66342971 -7.125 2 C-6.22007812 1.62875 -5.31515625 1.2575 -4.3828125 0.875 C-2 0 -2 0 0 0 Z " fill="#2F2A4F" transform="translate(289,337)"/>
<path d="M0 0 C2.31 1.98 4.62 3.96 7 6 C5.02 6.99 5.02 6.99 3 8 C2.34 7.67 1.68 7.34 1 7 C0.59270772 4.67843403 0.25561323 2.3431213 0 0 Z " fill="#2D2A4B" transform="translate(177,312)"/>
<path d="M0 0 C0.66 0.33 1.32 0.66 2 1 C0.42982807 2.36940568 -1.15665391 3.72012895 -2.75 5.0625 C-3.63171875 5.81660156 -4.5134375 6.57070313 -5.421875 7.34765625 C-6.69804687 8.16556641 -6.69804687 8.16556641 -8 9 C-9.32 8.67 -10.64 8.34 -12 8 C-8.04 5.36 -4.08 2.72 0 0 Z " fill="#9582C6" transform="translate(274,285)"/>
<path d="M0 0 C0 0.66 0 1.32 0 2 C-2.7898911 4.5832325 -5.20152621 5.70012049 -9 6 C-9.66 5.34 -10.32 4.68 -11 4 C-9.5437455 3.32880451 -8.08492133 2.66318193 -6.625 2 C-5.81289062 1.62875 -5.00078125 1.2575 -4.1640625 0.875 C-2 0 -2 0 0 0 Z " fill="#8271BD" transform="translate(221,159)"/>
<path d="M0 0 C3.48624056 0.6456001 6.12498789 1.92360237 9 4 C9 4.99 9 5.98 9 7 C5.18315774 5.44499019 2.80804268 2.96404505 0 0 Z " fill="#836EBA" transform="translate(185,319)"/>
<path d="M0 0 C3.39417765 3.12621626 5.6062718 5.56541027 7 10 C3.51808548 8.11788404 0.96821006 6.4990401 -1 3 C-0.67 2.01 -0.34 1.02 0 0 Z " fill="#2D274E" transform="translate(170,302)"/>
<path d="M0 0 C0 1.66666667 0 3.33333333 0 5 C-2.5 6.625 -2.5 6.625 -5 8 C-5.66 7.34 -6.32 6.68 -7 6 C-4.69 4.02 -2.38 2.04 0 0 Z " fill="#957ECF" transform="translate(288,273)"/>
<path d="M0 0 C2 1 2 1 3 3 C1.02 4.32 -0.96 5.64 -3 7 C-3.66 6.67 -4.32 6.34 -5 6 C-3.35 4.02 -1.7 2.04 0 0 Z " fill="#8B76CD" transform="translate(199,169)"/>
<path d="M0 0 C1.62463842 -0.05395478 3.24978541 -0.09277195 4.875 -0.125 C5.77992188 -0.14820313 6.68484375 -0.17140625 7.6171875 -0.1953125 C10 0 10 0 12 2 C7.31034294 3.11658501 4.46236469 2.80619523 0 1 C0 0.67 0 0.34 0 0 Z " fill="#7B68BA" transform="translate(220,340)"/>
<path d="M0 0 C2.80411009 1.40205505 3.53830878 3.26727293 5 6 C5.6875 8.3125 5.6875 8.3125 6 10 C2.46413986 6.82679218 0.41421969 4.83256305 0 0 Z " fill="#9584C1" transform="translate(244,224)"/>
<path d="M0 0 C0.6875 1.625 0.6875 1.625 1 4 C-0.4375 7.25 -0.4375 7.25 -2 10 C-2.66 10 -3.32 10 -4 10 C-2.8905928 6.51329166 -1.73662334 3.22515763 0 0 Z " fill="#EFE6FA" transform="translate(205,211)"/>
<path d="M0 0 C3.91211733 1.15585285 6.8745041 2.35534962 10 5 C6.28111761 4.49287967 3.26545761 3.88391785 0 2 C0 1.34 0 0.68 0 0 Z " fill="#7D6CB6" transform="translate(286,162)"/>
<path d="M0 0 C2.64 0.99 5.28 1.98 8 3 C7.67 3.99 7.34 4.98 7 6 C6.34 6 5.68 6 5 6 C5 5.34 5 4.68 5 4 C2.525 3.01 2.525 3.01 0 2 C0 1.34 0 0.68 0 0 Z " fill="#2E2C4F" transform="translate(207,335)"/>
<path d="M0 0 C0.99 0.33 1.98 0.66 3 1 C0.525 4.465 0.525 4.465 -2 8 C-2.33 6.68 -2.66 5.36 -3 4 C-1.5625 1.75 -1.5625 1.75 0 0 Z " fill="#8370BA" transform="translate(325,304)"/>
<path d="M0 0 C3.35595828 0.59927826 5.37801226 1.84622436 8 4 C7.67 4.66 7.34 5.32 7 6 C5.83054208 5.19152271 4.66449539 4.37810888 3.5 3.5625 C2.8503125 3.11003906 2.200625 2.65757812 1.53125 2.19140625 C1.0259375 1.79824219 0.520625 1.40507812 0 1 C0 0.67 0 0.34 0 0 Z " fill="#2F2D51" transform="translate(191,326)"/>
<path d="M0 0 C4.42857143 5.14285714 4.42857143 5.14285714 5 9 C2 8 2 8 0.8125 6.1875 C0 4 0 4 0 0 Z " fill="#2F2953" transform="translate(162,288)"/>
<path d="M0 0 C0.66 1.32 1.32 2.64 2 4 C0.68 5.32 -0.64 6.64 -2 8 C-2.33 7.01 -2.66 6.02 -3 5 C-1.5625 2.3125 -1.5625 2.3125 0 0 Z " fill="#2D2B49" transform="translate(173,189)"/>
</svg>
