<?xml version="1.0" encoding="UTF-8"?>
<svg version="1.1" xmlns="http://www.w3.org/2000/svg" viewBox="120 120 260 260" width="500" height="500">
<path d="M0 0 C1.576426 -0.0057123 3.15284786 -0.01267987 4.72926331 -0.02079773 C8.9856669 -0.0386518 13.24186346 -0.03757515 17.49829316 -0.03185534 C21.06403049 -0.02875145 24.62972875 -0.03486941 28.1954605 -0.04089409 C36.61504098 -0.054913 45.03451995 -0.05340073 53.45410156 -0.04199219 C62.11105597 -0.03052047 70.76770023 -0.04457669 79.42461377 -0.07138866 C86.88315301 -0.0936156 94.34159539 -0.10016714 101.80016536 -0.09431225 C106.24331035 -0.09095731 110.68625673 -0.09325932 115.12937355 -0.11056328 C119.31155711 -0.12614179 123.49328502 -0.12195745 127.67545128 -0.10325813 C129.20031529 -0.09960183 130.72521388 -0.10259314 132.25004578 -0.11314392 C148.97792141 -0.21994948 163.69796179 4.00187717 176.07495117 15.71655273 C190.08293026 30.66177455 192.56829423 48.48039459 192.36694336 68.24365234 C192.35976971 69.68096011 192.35348429 71.11827254 192.3480072 72.55558777 C192.33055567 76.41937667 192.30013462 80.28295827 192.26667309 84.14663768 C192.23315818 88.21592713 192.21009576 92.28527901 192.18536377 96.35462952 C192.14215996 103.1858702 192.0903383 110.01700504 192.03344727 116.84814453 C191.96807932 124.71142841 191.9170167 132.57470788 191.87350535 140.43814081 C191.83102299 148.04517691 191.77769537 155.65210224 191.71976471 163.25903511 C191.69548031 166.47673979 191.67499798 169.69443396 191.65773773 172.91218376 C191.63690936 176.71187582 191.60650493 180.51138111 191.56915474 184.31094551 C191.55132336 186.34535393 191.54268444 188.37983666 191.5344696 190.41430664 C191.31683736 209.70559984 188.21934152 223.55835395 174.19995117 237.40405273 C173.64694336 237.97897461 173.09393555 238.55389648 172.52416992 239.14624023 C155.94138871 255.02949965 129.08325576 252.5614643 107.86401367 252.53686523 C105.778839 252.53754166 103.6936644 252.53851448 101.60848999 252.5397644 C97.23613739 252.54123395 92.86380528 252.53911648 88.49145508 252.53442383 C83.0136713 252.52881811 77.53593701 252.53206039 72.05815506 252.53784561 C52.00527992 252.55601432 31.95225411 252.52755511 11.9035759 252.07711411 C10.27718874 252.04065845 8.65074501 252.00662281 7.02425003 251.97534561 C-19.77054182 251.43889153 -19.77054182 251.43889153 -30.11254883 245.77905273 C-30.78205566 245.42641357 -31.4515625 245.07377441 -32.14135742 244.71044922 C-41.26509977 239.73054476 -47.61187153 233.39583241 -52.80004883 224.40405273 C-53.1790332 223.76854492 -53.55801758 223.13303711 -53.94848633 222.47827148 C-59.78364968 211.8828433 -60.24670323 200.4047486 -60.2199707 188.59228516 C-60.22732753 187.03851213 -60.23591839 185.48474455 -60.24563599 183.9309845 C-60.26769139 179.74482185 -60.27079075 175.55885695 -60.26888847 171.37264419 C-60.26876803 167.86166971 -60.27736224 164.35073601 -60.28566599 160.839773 C-60.30484269 152.54761345 -60.30780491 144.25555454 -60.30102539 135.96337891 C-60.29438924 127.44610291 -60.31724496 118.92926048 -60.35433912 110.41207236 C-60.38515837 103.06555944 -60.39638296 95.71918512 -60.39250231 88.37260896 C-60.39044736 83.99979546 -60.39571793 79.62731959 -60.4203949 75.2545681 C-60.44286297 71.13794015 -60.44062036 67.02201116 -60.42046738 62.90537834 C-60.4170924 61.40714714 -60.42199203 59.90886698 -60.43645096 58.41070175 C-60.55607906 45.08050465 -58.24270982 30.62206419 -48.80004883 20.40405273 C-48.14004883 20.40405273 -47.48004883 20.40405273 -46.80004883 20.40405273 C-46.53192383 19.80592773 -46.26379883 19.20780273 -45.98754883 18.59155273 C-44.80087477 16.4055742 -43.7040577 14.9907268 -41.80004883 13.40405273 C-41.14004883 13.40405273 -40.48004883 13.40405273 -39.80004883 13.40405273 C-39.80004883 12.74405273 -39.80004883 12.08405273 -39.80004883 11.40405273 C-37.6824228 10.11944098 -35.55711637 8.85181212 -33.42504883 7.59155273 C-32.54913086 7.05691406 -32.54913086 7.05691406 -31.65551758 6.51147461 C-21.49470926 0.55702243 -11.53941279 -0.03796639 0 0 Z " fill="#242B36" transform="translate(184.800048828125,124.595947265625)"/>
<path d="M0 0 C41.58 0 83.16 0 126 0 C126 57.42 126 114.84 126 174 C84.42 174 42.84 174 0 174 C0 116.58 0 59.16 0 0 Z " fill="#EFECEB" transform="translate(185,159)"/>
<path d="M0 0 C21.12 0 42.24 0 64 0 C64 34.65 64 69.3 64 105 C42.88 105 21.76 105 0 105 C0 70.35 0 35.7 0 0 Z " fill="#4D4948" transform="translate(216,194)"/>
<path d="M0 0 C20.46 0 40.92 0 62 0 C62 11.55 62 23.1 62 35 C41.54 35 21.08 35 0 35 C0 23.45 0 11.9 0 0 Z " fill="#202631" transform="translate(217,194)"/>
<path d="M0 0 C0.66 0.33 1.32 0.66 2 1 C-0.53101038 4.46348788 -3.15486487 7.79010395 -6 11 C-6.66 11 -7.32 11 -8 11 C-8.19335938 11.61488281 -8.38671875 12.22976562 -8.5859375 12.86328125 C-8.84632813 13.67152344 -9.10671875 14.47976562 -9.375 15.3125 C-9.75785156 16.51326172 -9.75785156 16.51326172 -10.1484375 17.73828125 C-11 20 -11 20 -13 23 C-16.81657527 30.8154302 -16.44228223 39.1343857 -16.43237305 47.61743164 C-16.44140209 49.1852495 -16.45173209 50.75306032 -16.46325684 52.32086182 C-16.49071901 56.55368387 -16.50009661 60.78637158 -16.50611091 65.01927114 C-16.51552278 69.45157598 -16.54172837 73.88378159 -16.56611633 78.31602478 C-16.60970784 86.69866473 -16.63829987 95.08128534 -16.66143972 103.46400398 C-16.68853087 113.01185138 -16.73243992 122.55959859 -16.77772844 132.10737431 C-16.87046941 151.73819556 -16.94219835 171.36904681 -17 191 C-17.33 191 -17.66 191 -18 191 C-18.11711724 170.39772159 -18.20512669 149.79549855 -18.25906086 129.19295406 C-18.28477586 119.62551135 -18.31979724 110.05827622 -18.37719727 100.4909668 C-18.42723854 92.14617644 -18.45933966 83.8015365 -18.47044247 75.45660025 C-18.47692638 71.04331006 -18.49202317 66.63045 -18.52865028 62.21729851 C-18.56293855 58.05165644 -18.57298787 53.88661597 -18.56553841 49.72084618 C-18.56689847 48.20324671 -18.57663383 46.68562419 -18.59602737 45.16814804 C-18.75870778 31.76587674 -16.50187348 17.28208597 -7 7 C-6.34 7 -5.68 7 -5 7 C-4.731875 6.401875 -4.46375 5.80375 -4.1875 5.1875 C-3.01506533 3.02775192 -1.80630718 1.64209744 0 0 Z " fill="#878B92" transform="translate(143,138)"/>
<path d="M0 0 C0.66 0.33 1.32 0.66 2 1 C-0.53101038 4.46348788 -3.15486487 7.79010395 -6 11 C-6.66 11 -7.32 11 -8 11 C-8.19335938 11.61488281 -8.38671875 12.22976562 -8.5859375 12.86328125 C-8.84632813 13.67152344 -9.10671875 14.47976562 -9.375 15.3125 C-9.75785156 16.51326172 -9.75785156 16.51326172 -10.1484375 17.73828125 C-11 20 -11 20 -13 23 C-16.78411343 30.87602556 -16.6955427 39.44370002 -17 48 C-17.33 48 -17.66 48 -18 48 C-18.81792722 33.15007686 -17.09130061 20.99096631 -8.33203125 8.44140625 C-7.89246094 7.96574219 -7.45289063 7.49007812 -7 7 C-6.34 7 -5.68 7 -5 7 C-4.731875 6.401875 -4.46375 5.80375 -4.1875 5.1875 C-3.01506533 3.02775192 -1.80630718 1.64209744 0 0 Z " fill="#A0A3A8" transform="translate(143,138)"/>
<path d="M0 0 C-0.33 1.65 -0.66 3.3 -1 5 C-1.763125 5.12375 -2.52625 5.2475 -3.3125 5.375 C-6.20267136 5.88102792 -6.20267136 5.88102792 -9 8 C-9.99 8 -10.98 8 -12 8 C-12 7.34 -12 6.68 -12 6 C-9.8828125 4.4921875 -9.8828125 4.4921875 -7.125 2.875 C-6.22007812 2.33617187 -5.31515625 1.79734375 -4.3828125 1.2421875 C-2 0 -2 0 0 0 Z " fill="#7C8086" transform="translate(157,130)"/>
<path d="M0 0 C1.32 0.66 2.64 1.32 4 2 C1.91999989 2.84161854 -0.16414146 3.67300763 -2.25 4.5 C-3.41015625 4.9640625 -4.5703125 5.428125 -5.765625 5.90625 C-9 7 -9 7 -13 7 C-13 6.34 -13 5.68 -13 5 C-11.02 5 -9.04 5 -7 5 C-6.67 3.68 -6.34 2.36 -6 1 C-6 1.66 -6 2.32 -6 3 C-4.35 3 -2.7 3 -1 3 C-0.67 2.01 -0.34 1.02 0 0 Z " fill="#80848B" transform="translate(344,368)"/>
<path d="M0 0 C6.79087047 1.27328821 12.12627174 6.5122183 16 12 C14.35 11.67 12.7 11.34 11 11 C10.67 10.01 10.34 9.02 10 8 C8.67592331 7.31513275 7.34090759 6.65129797 6 6 C4.62689293 4.70766393 3.28965176 3.37562854 2 2 C1.34 1.34 0.68 0.68 0 0 Z " fill="#93969D" transform="translate(347,132)"/>
<path d="M0 0 C0.99 0.33 1.98 0.66 3 1 C3 1.66 3 2.32 3 3 C3.66 3.66 4.32 4.32 5 5 C2 7 2 7 -2 7 C-2.33 5.68 -2.66 4.36 -3 3 C-2.34 3 -1.68 3 -1 3 C-0.67 2.01 -0.34 1.02 0 0 Z " fill="#4F535D" transform="translate(348,362)"/>
<path d="M0 0 C0.99 0 1.98 0 3 0 C2.46884894 4.51478398 0.63379708 7.34666857 -2 11 C-2.95465783 8.83032311 -3.14401212 7.43671207 -2.3984375 5.17578125 C-1.64129615 3.4315257 -0.82390802 1.71372869 0 0 Z " fill="#8A8C92" transform="translate(369,342)"/>
<path d="M0 0 C0.66 0.33 1.32 0.66 2 1 C-0.52719217 4.45826297 -3.24449528 7.72318357 -6 11 C-6.33 9.68 -6.66 8.36 -7 7 C-6.34 7 -5.68 7 -5 7 C-4.731875 6.401875 -4.46375 5.80375 -4.1875 5.1875 C-3.01506533 3.02775192 -1.80630718 1.64209744 0 0 Z " fill="#7B8288" transform="translate(143,138)"/>
<path d="M0 0 C2.64836661 3.12988781 4.0048268 6.0193072 5 10 C4.546875 12.1875 4.546875 12.1875 4 14 C3.32471777 12.42032193 2.66010306 10.83608097 2 9.25 C1.62875 8.36828125 1.2575 7.4865625 0.875 6.578125 C0 4 0 4 0 0 Z " fill="#ABAEB1" transform="translate(370,155)"/>
<path d="M0 0 C3.54971796 0.60852308 6.76693609 1.38346804 10 3 C10.33 3.99 10.66 4.98 11 6 C6.95743617 4.77782954 3.50711041 3.37245704 0 1 C0 0.67 0 0.34 0 0 Z " fill="#74767D" transform="translate(149,366)"/>
<path d="M0 0 C3.68754757 0.49831724 5.60490662 1.10067643 8 4 C6.68 4.33 5.36 4.66 4 5 C3.67 4.01 3.34 3.02 3 2 C2.01 2.33 1.02 2.66 0 3 C0 2.01 0 1.02 0 0 Z " fill="#8A8D92" transform="translate(339,128)"/>
</svg>
