<?xml version="1.0" encoding="UTF-8"?>
<svg version="1.1" xmlns="http://www.w3.org/2000/svg" viewBox="0 0 500 500" width="500" height="500">
<path d="M0 0 C1.39613432 -0.00300044 2.79226782 -0.00640497 4.18840027 -0.01017761 C7.94477989 -0.0189308 11.70113666 -0.02135199 15.45752549 -0.0219934 C17.81356618 -0.02270874 20.16960122 -0.0248521 22.52564049 -0.02749062 C30.7710036 -0.03671457 39.01635065 -0.04082912 47.26171875 -0.04003906 C54.90634525 -0.03943873 62.55090109 -0.04998948 70.19550973 -0.06578273 C76.79466097 -0.07892266 83.39378928 -0.08422028 89.99295348 -0.08358365 C93.91852832 -0.0833306 97.84404021 -0.08607395 101.76960182 -0.0967617 C105.46580021 -0.10655248 109.16187684 -0.10644802 112.85807991 -0.09924507 C114.83391039 -0.09772684 116.80974115 -0.10596803 118.78555298 -0.11468506 C130.15332899 -0.0754379 142.69961417 0.04102774 152.90698242 5.58276367 C153.56754639 5.92984375 154.22811035 6.27692383 154.90869141 6.63452148 C167.16540509 13.44099482 175.84681792 24.66968246 180.53198242 37.83276367 C184.49461456 54.05058963 182.80647874 72.09336138 182.79130793 88.66834617 C182.7887394 92.36262312 182.79113402 96.05689785 182.79269409 99.75117493 C182.79450218 105.94642592 182.79214475 112.1416649 182.78735352 118.33691406 C182.7819063 125.46189098 182.78368241 132.5868393 182.78917992 139.71181554 C182.79374143 145.87453665 182.79434703 152.03724924 182.79174125 158.1999715 C182.79019603 161.86105334 182.78993599 165.5221218 182.79327774 169.18320274 C182.79674617 173.26652045 182.79191737 177.34979004 182.78637695 181.43310547 C182.78840118 182.61841354 182.79042542 183.80372162 182.79251099 185.02494812 C182.7432789 204.76419962 181.05500561 221.53762176 166.90698242 236.39526367 C157.28389742 245.61316614 146.23281795 251.24487639 132.8344574 251.29243469 C132.16078237 251.29611138 131.48710734 251.29978807 130.79301792 251.30357617 C128.54250541 251.31456214 126.29203916 251.31844819 124.04150391 251.32226562 C122.42478796 251.32853424 120.80807344 251.33518139 119.19136047 251.34217834 C113.8869425 251.363178 108.58252438 251.37357854 103.27807617 251.38354492 C101.44793241 251.38759434 99.6177888 251.39171132 97.78764534 251.395895 C89.18593195 251.41493956 80.58422709 251.4291708 71.98249668 251.43750697 C62.07384707 251.44726975 52.16542141 251.47356728 42.25685066 251.51400787 C34.58528633 251.54423694 26.91378594 251.55898237 19.24216324 251.56228799 C14.6664876 251.56463117 10.0910514 251.57349555 5.51543999 251.59874916 C1.20532651 251.62215341 -3.10439196 251.62621391 -7.41455269 251.61598778 C-8.98822347 251.61549526 -10.56191452 251.6217311 -12.13552475 251.63554382 C-28.97640327 251.77498376 -41.72362636 247.37666266 -54.15551758 235.83276367 C-68.86174913 219.94285982 -69.50811598 201.1935874 -69.47241211 180.61669922 C-69.47416443 179.34473694 -69.47591675 178.07277466 -69.47772217 176.76226807 C-69.48222466 173.31784067 -69.4805366 169.87344371 -69.47734308 166.42901587 C-69.47478022 162.79217949 -69.47716796 159.15534542 -69.47872925 155.51850891 C-69.48054031 149.41207419 -69.47817341 143.30565162 -69.47338867 137.19921875 C-69.46795546 130.1851312 -69.46970619 123.17107277 -69.47521508 116.15698594 C-69.47978547 110.09024361 -69.4803775 104.02350993 -69.47777641 97.95676643 C-69.47623411 94.35311235 -69.47596243 90.74947186 -69.4793129 87.14581871 C-69.52226788 33.12150415 -69.52226788 33.12150415 -52.78051758 14.89526367 C-38.08006074 0.77922866 -19.3041887 -0.00683576 0 0 Z " fill="#202C41" transform="translate(193.343017578125,123.854736328125)"/>
<path d="M0 0 C6.76402314 0.05284393 11.69679426 2.53967625 17.125 6.4375 C17.87007813 7.365625 18.61515625 8.29375 19.3828125 9.25 C21.79178733 11.63055511 21.79178733 11.63055511 24.05419922 11.4621582 C26.45592687 11.01220144 28.77164217 10.40751557 31.125 9.75 C46.43167589 6.11656864 60.89736724 6.03955683 75.97265625 10.66015625 C79.67307158 11.57534634 79.67307158 11.57534634 83.125 10.4375 C85.07427681 8.91704663 85.07427681 8.91704663 86.9375 7.0625 C93.21976558 1.43848652 98.47343844 0.10239009 106.76953125 0.13671875 C109.125 0.4375 109.125 0.4375 111.125 2.4375 C111.125 3.7575 111.125 5.0775 111.125 6.4375 C110.44695312 6.36789063 109.76890625 6.29828125 109.0703125 6.2265625 C101.28261379 5.77353848 96.21740185 7.537349 90.125 12.4375 C89.465 13.4275 88.805 14.4175 88.125 15.4375 C88.84558594 15.70691406 89.56617188 15.97632813 90.30859375 16.25390625 C108.53684912 23.91432425 121.72086915 40.03263428 130.125 57.4375 C131.37141085 60.66959689 132.45507686 63.88533937 133.43359375 67.20703125 C133.91958476 69.38743107 133.91958476 69.38743107 135.125 70.4375 C136.81334155 70.40486071 138.50102574 70.33583157 140.1875 70.25 C146.68675318 70.21628144 150.75798118 71.63712581 155.7265625 75.76953125 C159.94258364 80.42128642 159.90327723 85.81972716 159.671875 91.85546875 C158.59997561 98.87640975 155.33877453 104.95433265 149.9375 109.625 C145.41477394 112.45679695 140.25721311 111.85513036 135.125 111.4375 C134.88007813 112.31148438 134.63515625 113.18546875 134.3828125 114.0859375 C129.6848104 129.54074442 122.13630074 143.54848689 111.125 155.4375 C110.4340625 156.18515625 109.743125 156.9328125 109.03125 157.703125 C105.04739862 161.84020143 100.96567023 165.33947105 96.125 168.4375 C95.465 168.4375 94.805 168.4375 94.125 168.4375 C94.125 169.0975 94.125 169.7575 94.125 170.4375 C84.35227273 175.4375 84.35227273 175.4375 80.125 175.4375 C80.125 181.7075 80.125 187.9775 80.125 194.4375 C74.185 194.4375 68.245 194.4375 62.125 194.4375 C62.125 188.4975 62.125 182.5575 62.125 176.4375 C60.805 176.7675 59.485 177.0975 58.125 177.4375 C56.12669711 177.52981291 54.12542773 177.56750107 52.125 177.5625 C51.09375 177.56507813 50.0625 177.56765625 49 177.5703125 C46.125 177.4375 46.125 177.4375 42.125 176.4375 C42.125 182.3775 42.125 188.3175 42.125 194.4375 C36.185 194.4375 30.245 194.4375 24.125 194.4375 C24.125 188.1675 24.125 181.8975 24.125 175.4375 C22.145 175.1075 20.165 174.7775 18.125 174.4375 C15.3515625 173.24609375 15.3515625 173.24609375 12.75 171.875 C11.87601562 171.41996094 11.00203125 170.96492187 10.1015625 170.49609375 C9.12316406 169.97208984 9.12316406 169.97208984 8.125 169.4375 C8.125 168.7775 8.125 168.1175 8.125 167.4375 C7.06345703 167.10685547 7.06345703 167.10685547 5.98046875 166.76953125 C2.48021343 165.13671721 0.09177348 162.85714841 -2.5625 160.125 C-3.08432861 159.58939453 -3.60615723 159.05378906 -4.14379883 158.50195312 C-17.35571526 144.70163549 -25.12893928 129.63472511 -30.875 111.4375 C-31.59945312 111.48390625 -32.32390625 111.5303125 -33.0703125 111.578125 C-39.2409306 111.80849474 -43.08128256 111.76353769 -47.875 107.4375 C-54.47786348 100.45733004 -55.45094277 94.05115343 -55.22265625 84.69140625 C-54.77994512 80.54782909 -53.82688388 78.38938388 -50.875 75.4375 C-46.39234937 72.05264136 -42.99038194 70.29378206 -37.375 70.3125 C-36.6015625 70.30992187 -35.828125 70.30734375 -35.03125 70.3046875 C-32.875 70.4375 -32.875 70.4375 -29.875 71.4375 C-29.75125 70.8290625 -29.6275 70.220625 -29.5 69.59375 C-26.24739225 55.77016708 -19.47059834 43.84004079 -9.875 33.4375 C-9.32457031 32.80714844 -8.77414063 32.17679688 -8.20703125 31.52734375 C-2.02877003 24.83041369 6.51683882 18.46155662 15.125 15.4375 C13.79454563 11.4461369 11.8905709 10.6074385 8.3828125 8.5078125 C4.92095942 6.86672644 1.9436522 6.68790342 -1.875 6.4375 C-3.54556149 6.12426972 -5.21458925 5.80071485 -6.875 5.4375 C-5.77067401 0.54691347 -5.04055678 0.23560676 0 0 Z " fill="#C03233" transform="translate(197.875,152.5625)"/>
<path d="M0 0 C6.76402314 0.05284393 11.69679426 2.53967625 17.125 6.4375 C17.87007813 7.365625 18.61515625 8.29375 19.3828125 9.25 C21.79178733 11.63055511 21.79178733 11.63055511 24.05419922 11.4621582 C26.45592687 11.01220144 28.77164217 10.40751557 31.125 9.75 C47.61345449 5.83604324 62.98890726 6.32507458 79.125 11.4375 C75.70211389 12.38583208 72.67519259 12.4375 69.125 12.4375 C68.465 12.7675 67.805 13.0975 67.125 13.4375 C67.125 12.7775 67.125 12.1175 67.125 11.4375 C51.46576865 9.76306651 51.46576865 9.76306651 36.125 12.4375 C35.465 13.0975 34.805 13.7575 34.125 14.4375 C34.125 13.7775 34.125 13.1175 34.125 12.4375 C30.63690809 13.20780122 30.63690809 13.20780122 27.125 14.4375 C26.795 15.4275 26.465 16.4175 26.125 17.4375 C24.145 16.7775 22.165 16.1175 20.125 15.4375 C20.62 17.4175 20.62 17.4175 21.125 19.4375 C19.475 19.1075 17.825 18.7775 16.125 18.4375 C15.63 19.9225 15.63 19.9225 15.125 21.4375 C13.475 21.4375 11.825 21.4375 10.125 21.4375 C9.795 22.0975 9.465 22.7575 9.125 23.4375 C8.465 23.4375 7.805 23.4375 7.125 23.4375 C6.465 24.0975 5.805 24.7575 5.125 25.4375 C4.135 25.9325 4.135 25.9325 3.125 26.4375 C3.0425 27.076875 2.96 27.71625 2.875 28.375 C2.6275 29.055625 2.38 29.73625 2.125 30.4375 C0.6709375 30.9015625 0.6709375 30.9015625 -0.8125 31.375 C-1.823125 31.725625 -2.83375 32.07625 -3.875 32.4375 C-4.57711894 34.08954456 -5.24471413 35.75673769 -5.875 37.4375 C-6.638125 37.72625 -7.40125 38.015 -8.1875 38.3125 C-12.09952057 39.95009001 -13.67043632 42.92896036 -15.875 46.4375 C-14.885 46.9325 -14.885 46.9325 -13.875 47.4375 C-13.875 48.4275 -13.875 49.4175 -13.875 50.4375 C-14.535 50.4375 -15.195 50.4375 -15.875 50.4375 C-15.875 51.0975 -15.875 51.7575 -15.875 52.4375 C-15.215 52.4375 -14.555 52.4375 -13.875 52.4375 C-14.205 53.4275 -14.535 54.4175 -14.875 55.4375 C-18.4375 56.625 -18.4375 56.625 -21.875 57.4375 C-21.99617188 58.04078125 -22.11734375 58.6440625 -22.2421875 59.265625 C-22.40976563 60.06484375 -22.57734375 60.8640625 -22.75 61.6875 C-22.91242188 62.47640625 -23.07484375 63.2653125 -23.2421875 64.078125 C-23.86650075 66.40581144 -24.72338542 68.32781952 -25.875 70.4375 C-24.555 70.7675 -23.235 71.0975 -21.875 71.4375 C-21.875 71.7675 -21.875 72.0975 -21.875 72.4375 C-29.795 72.9325 -29.795 72.9325 -37.875 73.4375 C-37.875 74.0975 -37.875 74.7575 -37.875 75.4375 C-40.35 75.9325 -40.35 75.9325 -42.875 76.4375 C-42.875 77.0975 -42.875 77.7575 -42.875 78.4375 C-43.514375 78.685 -44.15375 78.9325 -44.8125 79.1875 C-45.493125 79.6 -46.17375 80.0125 -46.875 80.4375 C-47.019375 81.05625 -47.16375 81.675 -47.3125 82.3125 C-48.15130733 85.48132769 -50.28952883 86.58126429 -52.875 88.4375 C-53.43018152 83.25580578 -53.26712832 80.36295285 -50.1875 76.0625 C-47.65179852 73.05504011 -45.85050021 71.17712795 -41.875 70.4375 C-37.6238122 70.17415208 -33.94122917 70.08209028 -29.875 71.4375 C-29.75125 70.8290625 -29.6275 70.220625 -29.5 69.59375 C-26.24739225 55.77016708 -19.47059834 43.84004079 -9.875 33.4375 C-9.32457031 32.80714844 -8.77414063 32.17679688 -8.20703125 31.52734375 C-2.02877003 24.83041369 6.51683882 18.46155662 15.125 15.4375 C13.79454563 11.4461369 11.8905709 10.6074385 8.3828125 8.5078125 C4.92095942 6.86672644 1.9436522 6.68790342 -1.875 6.4375 C-3.54556149 6.12426972 -5.21458925 5.80071485 -6.875 5.4375 C-5.77067401 0.54691347 -5.04055678 0.23560676 0 0 Z " fill="#C6474C" transform="translate(197.875,152.5625)"/>
<path d="M0 0 C4.13027611 1.062071 6.6938003 3.0398858 9.0390625 6.625 C11.56998647 12.88029178 11.0835507 19.89814536 8.890625 26.17578125 C6.16886821 31.58271209 2.94678706 36.92086016 -3 39 C-6.70981869 39.37098187 -10.28776765 39.30208039 -14 39 C-14.36738281 40.31097656 -14.36738281 40.31097656 -14.7421875 41.6484375 C-19.4401896 57.10324442 -26.98869926 71.11098689 -38 83 C-39.03640625 84.12148438 -39.03640625 84.12148438 -40.09375 85.265625 C-44.07760138 89.40270143 -48.15932977 92.90197105 -53 96 C-53.66 96 -54.32 96 -55 96 C-55 96.66 -55 97.32 -55 98 C-64.77272727 103 -64.77272727 103 -69 103 C-69 109.27 -69 115.54 -69 122 C-74.94 122 -80.88 122 -87 122 C-87 116.06 -87 110.12 -87 104 C-88.98 104.495 -88.98 104.495 -91 105 C-92.99830289 105.09231291 -94.99957227 105.13000107 -97 105.125 C-98.03125 105.12757813 -99.0625 105.13015625 -100.125 105.1328125 C-102.59657009 105.01863671 -104.6442958 104.71350656 -107 104 C-106.67 103.01 -106.34 102.02 -106 101 C-103.79142945 101.14219564 -101.58315013 101.28891847 -99.375 101.4375 C-97.53035156 101.55931641 -97.53035156 101.55931641 -95.6484375 101.68359375 C-89.0474971 102.25605218 -89.0474971 102.25605218 -86 103 C-84.26090967 105.72457485 -83 107.72482466 -83 111 C-83.66 111 -84.32 111 -85 111 C-84.835 111.556875 -84.67 112.11375 -84.5 112.6875 C-83.95931717 115.18815807 -83.96615482 117.4489198 -84 120 C-82.3745692 119.85904936 -80.74965949 119.71207913 -79.125 119.5625 C-78.22007812 119.48128906 -77.31515625 119.40007812 -76.3828125 119.31640625 C-73.98889139 119.13010715 -73.98889139 119.13010715 -72 118 C-71.88679144 112.91696314 -71.88679144 112.91696314 -73 108 C-70.64285714 102.64285714 -70.64285714 102.64285714 -69 101 C-67.00041636 100.95919217 -64.99954746 100.95745644 -63 101 C-63 100.34 -63 99.68 -63 99 C-62.34 99 -61.68 99 -61 99 C-61 98.01 -61 97.02 -61 96 C-60.06027344 95.88785156 -60.06027344 95.88785156 -59.1015625 95.7734375 C-56.59690236 95.37047956 -54.36285059 94.93121552 -52 94 C-50.60380471 91.06201446 -50.60380471 91.06201446 -50 88 C-48 86.875 -48 86.875 -46 86 C-44.73195434 83.9664052 -44.73195434 83.9664052 -44 82 C-42.68 82 -41.36 82 -40 82 C-39.01 80.02 -39.01 80.02 -38 78 C-37.34 78 -36.68 78 -36 78 C-35.95875 77.113125 -35.9175 76.22625 -35.875 75.3125 C-34.86843803 71.50194397 -33.59337878 70.79856517 -30.54296875 68.5234375 C-28.03419893 66.04642426 -27.2304759 63.03029377 -26.078125 59.75390625 C-24.89742661 56.73799187 -23.39202987 54.10164888 -21.75 51.3125 C-19.24281406 46.89685909 -18.79143964 44.10972893 -19 39 C-17.5625 36.5 -17.5625 36.5 -15 35 C-12.66289945 35.06003561 -10.50967215 35.37304569 -8.21875 35.8359375 C-5.49469414 36.03736417 -4.23643929 35.54000425 -2 34 C-1.67 33.01 -1.34 32.02 -1 31 C0.65 31 2.3 31 4 31 C4.185625 29.948125 4.185625 29.948125 4.375 28.875 C5 26 5 26 6.125 23.1875 C7.49584947 18.19369123 6.6381615 13.91448449 5 9 C4.64763503 7.00326516 4.31165441 5.00349261 4 3 C2.68 2.67 1.36 2.34 0 2 C0 1.34 0 0.68 0 0 Z " fill="#8F2C33" transform="translate(347,225)"/>
<path d="M0 0 C3.11141288 1.6437653 5.28893717 3.03036886 7.375 5.875 C8.23855538 8.81108828 8.36658209 10.94514926 8 14 C5.96006092 17.6578218 4.49580738 19.66946174 1 22 C-2.76904461 22.6820176 -6.45628171 22.83098707 -9.88671875 20.984375 C-13.74125804 17.88581073 -14.82565864 15.54001531 -15.375 10.6875 C-14.87537565 5.77452721 -13.49238747 4.41116915 -10 1 C-6.38069302 -0.20643566 -3.80768995 -0.32268559 0 0 Z " fill="#26080A" transform="translate(282,196)"/>
<path d="M0 0 C3.70390021 2.02666238 5.65363011 3.48044516 8 7 C8.46287185 11.99901603 8.10431905 15.00873265 5 19 C3.09180914 21.12836673 1.7416826 21.88589498 -1.08203125 22.3203125 C-5.2192992 22.52614673 -7.42008631 22.36244605 -11 20.125 C-14.47902736 16.42853343 -14.38781166 13.40391772 -14.359375 8.484375 C-14 6 -14 6 -11.625 2.9375 C-7.49878454 -0.10803998 -5.16827351 -0.43068946 0 0 Z " fill="#090810" transform="translate(225,196)"/>
<path d="M0 0 C1.65 0 3.3 0 5 0 C5 0.66 5 1.32 5 2 C5.99 1.67 6.98 1.34 8 1 C10.5808926 1.08744008 13.11691478 1.22868495 15.6875 1.4375 C16.7403418 1.51581055 16.7403418 1.51581055 17.81445312 1.59570312 C19.54338054 1.72507865 21.27175355 1.86182531 23 2 C27.84147489 14.94394319 27.84147489 14.94394319 25.87109375 22.390625 C25 24 25 24 22 25 C22.57584432 22.61435923 23.22227595 20.33317216 24 18 C24.50031206 14.58428147 24.50031206 14.58428147 24 11 C21.8272578 8.36983839 20.05326212 6.52663106 17 5 C12.00779715 4.62322997 9.01979857 4.92603639 5 8 C3.13255083 11.73489833 3.46191262 15.93231565 4 20 C6.11962394 23.39139831 7.72208074 24.63125689 11.55859375 25.73828125 C14.03517242 26.25467425 16.49193933 26.67370861 19 27 C19 28.32 19 29.64 19 31 C18.34 31 17.68 31 17 31 C17 30.34 17 29.68 17 29 C16.01 29 15.02 29 14 29 C14 29.66 14 30.32 14 31 C13.2575 30.979375 12.515 30.95875 11.75 30.9375 C9.29537721 30.99328688 7.33890739 31.3069904 5 32 C5.33 30.35 5.66 28.7 6 27 C5.01 26.62875 4.02 26.2575 3 25.875 C1.34375 24.80078125 1.34375 24.80078125 0 23 C-0.96011972 16.43118092 -0.85411036 10.06498451 2 4 C1.34 3.67 0.68 3.34 0 3 C0 2.01 0 1.02 0 0 Z " fill="#D33C3E" transform="translate(208,192)"/>
<path d="M0 0 C2 2 2 2 2 6 C1.32195312 5.93039063 0.64390625 5.86078125 -0.0546875 5.7890625 C-9.63655865 5.23166833 -15.20259646 8.89198339 -22.5 14.6875 C-25.12629721 16.93579097 -25.12629721 16.93579097 -27 20 C-28.65 19.67 -30.3 19.34 -32 19 C-31.67 17.35 -31.34 15.7 -31 14 C-30.071875 13.87625 -30.071875 13.87625 -29.125 13.75 C-26.30993583 12.75644794 -26.29874921 11.6117704 -25 9 C-18.09032958 1.54338997 -10.09143311 -1.28862413 0 0 Z " fill="#D34C4E" transform="translate(307,153)"/>
<path d="M0 0 C-0.33 4.62 -0.66 9.24 -1 14 C-7.0472973 16.41891892 -7.0472973 16.41891892 -11 15 C-13.3125 12.9375 -13.3125 12.9375 -15 11 C-14.34 10.34 -13.68 9.68 -13 9 C-12.79127281 6.21697081 -12.74359102 4.51281795 -14 2 C-12.03715497 -0.65561386 -10.85979889 -1.03313844 -7.5625 -1.8125 C-4 -2 -4 -2 0 0 Z " fill="#070D14" transform="translate(230,201)"/>
<path d="M0 0 C6.14992557 0.08924694 10.93301996 1.996958 16 5.4375 C16.33 6.0975 16.66 6.7575 17 7.4375 C11.35223881 5.64048507 11.35223881 5.64048507 9.15625 4.375 C6.40196014 3.17748267 4.24038403 3.24130038 1.25 3.3125 C0.26515625 3.33054688 -0.7196875 3.34859375 -1.734375 3.3671875 C-2.48203125 3.39039063 -3.2296875 3.41359375 -4 3.4375 C-4.33 4.7575 -4.66 6.0775 -5 7.4375 C-4.443125 7.39109375 -3.88625 7.3446875 -3.3125 7.296875 C5.17755675 6.89531826 10.66546074 9.89477814 17 15.4375 C16.67 16.4275 16.34 17.4175 16 18.4375 C14.17839265 19.3311187 12.35358698 20.21864638 10.515625 21.078125 C2.64800627 25.32957115 -4.32816864 31.52383129 -11 37.4375 C-11.4025937 33.91480515 -11.13372795 32.63809192 -9.125 29.625 C-8.42375 28.903125 -7.7225 28.18125 -7 27.4375 C-6.34 27.4375 -5.68 27.4375 -5 27.4375 C-5 26.7775 -5 26.1175 -5 25.4375 C-3.700625 25.31375 -3.700625 25.31375 -2.375 25.1875 C2.16057786 24.17959381 5.40451065 22.09435432 8.625 18.75 C10.32154637 17.13056938 11.71949044 16.8306913 14 16.4375 C13.05125 15.633125 12.1025 14.82875 11.125 14 C10.59132812 13.54753906 10.05765625 13.09507812 9.5078125 12.62890625 C6.28272001 10.08058187 3.40815733 10.15178531 -0.625 9.875 C-1.81351563 9.79121094 -3.00203125 9.70742187 -4.2265625 9.62109375 C-5.14179688 9.56050781 -6.05703125 9.49992188 -7 9.4375 C-7.125 6.0625 -7.125 6.0625 -7 2.4375 C-4.48477991 -0.07772009 -3.49221899 0.08432915 0 0 Z " fill="#452431" transform="translate(197,150.5625)"/>
<path d="M0 0 C3.13538887 0.52256481 5.08222941 1.54858471 7.625 3.4375 C7.625 4.0975 7.625 4.7575 7.625 5.4375 C8.285 5.4375 8.945 5.4375 9.625 5.4375 C9.75 8.8125 9.75 8.8125 9.625 12.4375 C7.194534 14.867966 6.0260144 15.20021993 2.625 15.4375 C0.92985863 14.48656703 -0.73868108 13.48642238 -2.375 12.4375 C-3.695 12.4375 -5.015 12.4375 -6.375 12.4375 C-5.4217706 0.99874722 -5.4217706 0.99874722 0 0 Z " fill="#070F15" transform="translate(278.375,198.5625)"/>
<path d="M0 0 C4.875 1.75 4.875 1.75 6 4 C6.66 4 7.32 4 8 4 C8 5.32 8 6.64 8 8 C8.99 8 9.98 8 11 8 C12.01866229 9.65532623 13.01810813 11.32260138 14 13 C14.99 13.33 15.98 13.66 17 14 C17 14.66 17 15.32 17 16 C17.99 16 18.98 16 20 16 C20 16.66 20 17.32 20 18 C20.56847656 18.18175781 21.13695312 18.36351562 21.72265625 18.55078125 C22.49480469 18.80214844 23.26695312 19.05351562 24.0625 19.3125 C24.81660156 19.55613281 25.57070312 19.79976563 26.34765625 20.05078125 C29.62070136 21.22213613 32.80474509 22.63060504 36 24 C35.67 29.94 35.34 35.88 35 42 C40.28 42 45.56 42 51 42 C51 36.72 51 31.44 51 26 C51.33 26 51.66 26 52 26 C52 31.94 52 37.88 52 44 C46.06 44 40.12 44 34 44 C34 37.73 34 31.46 34 25 C32.02 24.67 30.04 24.34 28 24 C25.2265625 22.80859375 25.2265625 22.80859375 22.625 21.4375 C21.75101563 20.98246094 20.87703125 20.52742188 19.9765625 20.05859375 C19.32429688 19.70925781 18.67203125 19.35992187 18 19 C18 18.34 18 17.68 18 17 C16.95585937 16.68869141 16.95585937 16.68869141 15.890625 16.37109375 C12.0912118 14.56893965 9.65323875 12.05468601 6.75 9.0625 C6.20859375 8.52431641 5.6671875 7.98613281 5.109375 7.43164062 C2.70043624 4.98957896 1.09836097 3.29508291 0 0 Z " fill="#96333B" transform="translate(188,303)"/>
<path d="M0 0 C2.97 0.495 2.97 0.495 6 1 C6 7.27 6 13.54 6 20 C11.94 20 17.88 20 24 20 C24 14.06 24 8.12 24 2 C30.6 2 37.2 2 44 2 C44 7.94 44 13.88 44 20 C43.67 20 43.34 20 43 20 C42.505 12.575 42.505 12.575 42 5 C36.39 4.67 30.78 4.34 25 4 C25 9.94 25 15.88 25 22 C18.07 22 11.14 22 4 22 C4 15.4 4 8.8 4 2 C2.68 1.67 1.36 1.34 0 1 C0 0.67 0 0.34 0 0 Z " fill="#4A2635" transform="translate(216,327)"/>
<path d="M0 0 C0.99 0.33 1.98 0.66 3 1 C2.67773438 1.52078125 2.35546875 2.0415625 2.0234375 2.578125 C-0.33880775 8.16817102 0.02795846 15.76821241 1.7578125 21.51953125 C2.71087247 23.48193426 3.74162528 25.22017548 5 27 C5.66 27.94875 6.32 28.8975 7 29.875 C9.7651937 32.81301831 11.73785107 33.91186111 15.796875 34.1953125 C16.77140625 34.17210937 17.7459375 34.14890625 18.75 34.125 C19.73484375 34.10695313 20.7196875 34.08890625 21.734375 34.0703125 C22.48203125 34.04710937 23.2296875 34.02390625 24 34 C24.33 35.65 24.66 37.3 25 39 C24.67 38.01 24.34 37.02 24 36 C22.85724609 36.10441406 22.85724609 36.10441406 21.69140625 36.2109375 C15.11482682 36.55577687 10.29427469 36.26017299 4.98046875 32.15625 C-0.36629104 26.33492573 -3.30433389 18.93656634 -3.5625 11.0625 C-3.31960006 6.80240882 -2.35344821 3.62823265 0 0 Z " fill="#3D2532" transform="translate(143,229)"/>
<path d="M0 0 C-3.42288611 0.94833208 -6.44980741 1 -10 1 C-10.66 1.33 -11.32 1.66 -12 2 C-12 1.34 -12 0.68 -12 0 C-23.628657 -1.40044041 -35.30936996 -1.09657994 -47 -1 C-33.42419834 -8.11655152 -13.95109658 -4.42014941 0 0 Z " fill="#AE414C" transform="translate(277,164)"/>
<path d="M0 0 C0 3 0 3 -1 4.9375 C-2.290849 7.21785272 -2.290849 7.21785272 -2 11 C-0.6696875 11.12375 -0.6696875 11.12375 0.6875 11.25 C4.41255464 12.0934086 6.20928838 13.45552764 9 16 C7 18 7 18 4.25 18.3125 C0.50849501 17.9527399 -1.82657528 16.99261552 -5 15 C-5.96070434 12.11788698 -6.10581883 10.30149956 -6.0625 7.3125 C-6.05347656 6.50425781 -6.04445313 5.69601563 -6.03515625 4.86328125 C-6.02355469 4.24839844 -6.01195312 3.63351563 -6 3 C-4.02 2.01 -2.04 1.02 0 0 Z " fill="#080C15" transform="translate(275,199)"/>
<path d="M0 0 C-1.65 0.33 -3.3 0.66 -5 1 C-4.89300781 2.27617187 -4.78601563 3.55234375 -4.67578125 4.8671875 C-4.55387254 6.53639901 -4.43282323 8.20567345 -4.3125 9.875 C-4.23966797 10.71675781 -4.16683594 11.55851562 -4.09179688 12.42578125 C-4.03701172 13.23144531 -3.98222656 14.03710938 -3.92578125 14.8671875 C-3.83937378 15.98262939 -3.83937378 15.98262939 -3.7512207 17.12060547 C-3.83331787 17.74080566 -3.91541504 18.36100586 -4 19 C-7.10085571 21.06723714 -7.72931681 21.24497423 -11.23046875 21.1953125 C-12.03291016 21.18886719 -12.83535156 21.18242187 -13.66210938 21.17578125 C-14.49548828 21.15902344 -15.32886719 21.14226562 -16.1875 21.125 C-17.03248047 21.11597656 -17.87746094 21.10695313 -18.74804688 21.09765625 C-20.83215243 21.07410703 -22.91611217 21.03823647 -25 21 C-25 20.34 -25 19.68 -25 19 C-19.06 19 -13.12 19 -7 19 C-7 12.73 -7 6.46 -7 0 C-3.86650268 -1.04449911 -3.01031744 -0.93423645 0 0 Z " fill="#452531" transform="translate(285,328)"/>
<path d="M0 0 C0 0.99 0 1.98 0 3 C-1.65 3.33 -3.3 3.66 -5 4 C-5 4.66 -5 5.32 -5 6 C-5.9590625 6.37125 -5.9590625 6.37125 -6.9375 6.75 C-7.9584375 7.36875 -7.9584375 7.36875 -9 8 C-9.144375 8.61875 -9.28875 9.2375 -9.4375 9.875 C-10.27630733 13.04382769 -12.41452883 14.14376429 -15 16 C-15.66964286 8.23214286 -15.66964286 8.23214286 -12.8125 4.625 C-8.66672766 0.75561248 -5.630548 -0.3217456 0 0 Z " fill="#DA3E3F" transform="translate(160,225)"/>
<path d="M0 0 C0.95648438 -0.01675781 1.91296875 -0.03351563 2.8984375 -0.05078125 C5.98493828 0.36045739 7.33683974 1.25749351 9.625 3.3125 C8.635 3.3125 7.645 3.3125 6.625 3.3125 C6.625 4.3025 6.625 5.2925 6.625 6.3125 C7.615 6.6425 8.605 6.9725 9.625 7.3125 C8.635 7.8075 8.635 7.8075 7.625 8.3125 C6.944375 8.003125 6.26375 7.69375 5.5625 7.375 C1.54926282 5.92340357 -2.15200348 6.14689229 -6.375 6.3125 C-7 4.4375 -7 4.4375 -7.375 2.3125 C-4.78299871 -0.27950129 -3.59977771 0.01447632 0 0 Z " fill="#AB4C54" transform="translate(198.375,152.6875)"/>
<path d="M0 0 C0.9796875 -0.01417969 1.959375 -0.02835938 2.96875 -0.04296875 C5.5 0.1875 5.5 0.1875 7.5 2.1875 C7.5 3.5075 7.5 4.8275 7.5 6.1875 C1.56 6.1875 -4.38 6.1875 -10.5 6.1875 C-6.91117968 0.2061328 -6.43383273 0.04232785 0 0 Z " fill="#D64247" transform="translate(301.5,152.8125)"/>
<path d="M0 0 C0.99 0.66 1.98 1.32 3 2 C-0.63 2 -4.26 2 -8 2 C-8.33 3.32 -8.66 4.64 -9 6 C-9.66 6 -10.32 6 -11 6 C-10.67 8.64 -10.34 11.28 -10 14 C-13.0831351 12.80100302 -16.06279492 11.52299523 -19 10 C-16.14971245 2.7561753 -7.43833221 -1.21442158 0 0 Z " fill="#3C2535" transform="translate(305,158)"/>
<path d="M0 0 C0.763125 0.20625 1.52625 0.4125 2.3125 0.625 C2.9375 4 2.9375 4 3.3125 7.625 C1.3125 9.625 1.3125 9.625 -1.1875 9.875 C-3.6875 9.625 -3.6875 9.625 -5.6875 7.625 C-6 4.625 -6 4.625 -5.6875 1.625 C-2.6875 -0.375 -2.6875 -0.375 0 0 Z " fill="#3EB1A7" transform="translate(224.6875,200.375)"/>
<path d="M0 0 C0.33 0 0.66 0 1 0 C1.08636719 0.67546875 1.17273438 1.3509375 1.26171875 2.046875 C1.92285581 6.24418549 2.4027326 9.23984149 5.0625 12.625 C9.14436051 14.53565811 12.57600551 14.90728018 17 14 C20.80675596 11.40816616 22.18696789 9.02773685 23.3125 4.6875 C23.539375 3.470625 23.76625 2.25375 24 1 C24.33 1 24.66 1 25 1 C25.33160622 9.45595855 25.33160622 9.45595855 23 13 C19.33511618 16.19041226 16.0128994 18.12329344 11.06640625 17.8203125 C6.96091726 16.84982506 3.9047277 15.85302898 0.8125 12.9375 C-0.38247828 8.61719391 -0.23338175 4.45154077 0 0 Z " fill="#A0373A" transform="translate(266,203)"/>
<path d="M0 0 C0 0.99 0 1.98 0 3 C-0.99 3.33 -1.98 3.66 -3 4 C-3 4.66 -3 5.32 -3 6 C-5.88415883 7.44207941 -8.41721528 7.09394887 -11.625 7.0625 C-12.81351562 7.05347656 -14.00203125 7.04445313 -15.2265625 7.03515625 C-16.14179688 7.02355469 -17.05703125 7.01195312 -18 7 C-17.91298828 8.51980469 -17.91298828 8.51980469 -17.82421875 10.0703125 C-18.01629073 14.36418825 -18.97916453 17.01205957 -20.8125 20.875 C-21.59560547 22.57269531 -21.59560547 22.57269531 -22.39453125 24.3046875 C-24 27 -24 27 -27 28 C-26.58234375 26.98099609 -26.58234375 26.98099609 -26.15625 25.94140625 C-24.38358274 21.43188448 -22.81949126 16.85019302 -21.21875 12.27734375 C-20.27268631 9.73328146 -19.2838676 7.38347643 -18 5 C-16.93072266 5.08701172 -16.93072266 5.08701172 -15.83984375 5.17578125 C-8.73402561 5.51051023 -5.33648769 4.74354462 0 0 Z " fill="#392431" transform="translate(351,258)"/>
<path d="M0 0 C1.2077558 3.62326739 0.54311128 4.64146369 -1 8 C-2.16015625 7.93039063 -2.16015625 7.93039063 -3.34375 7.859375 C-10.5209746 7.6106593 -14.86533513 8.25103814 -21 12 C-21.99 12.495 -21.99 12.495 -23 13 C-21.76465298 9.29395893 -19.80264776 7.66251537 -17 5 C-16.67 4.67 -16.34 4.34 -16 4 C-13.64305046 4.09031574 -11.28846418 4.24688128 -8.9375 4.4375 C-7.64714844 4.53933594 -6.35679687 4.64117187 -5.02734375 4.74609375 C-3.52880859 4.87177734 -3.52880859 4.87177734 -2 5 C-1.855625 4.360625 -1.71125 3.72125 -1.5625 3.0625 C-1 1 -1 1 0 0 Z " fill="#312636" transform="translate(169,216)"/>
<path d="M0 0 C1.010625 0.268125 2.02125 0.53625 3.0625 0.8125 C4.3928125 1.06 4.3928125 1.06 5.75 1.3125 C8.0625 1.8125 8.0625 1.8125 11.0625 2.8125 C8.41791621 4.13479189 6.38488699 3.90927194 3.4375 3.875 C2.43460937 3.86597656 1.43171875 3.85695313 0.3984375 3.84765625 C-0.37242187 3.83605469 -1.14328125 3.82445312 -1.9375 3.8125 C-2.44410156 5.40191406 -2.44410156 5.40191406 -2.9609375 7.0234375 C-3.41113992 8.41156164 -3.86167825 9.79957687 -4.3125 11.1875 C-4.53421875 11.88617188 -4.7559375 12.58484375 -4.984375 13.3046875 C-6.7109375 18.5859375 -6.7109375 18.5859375 -8.9375 20.8125 C-8.793125 20.17183594 -8.64875 19.53117187 -8.5 18.87109375 C-7.61650767 14.75426492 -6.92593512 11.17101139 -7.0625 6.9375 C-6.9375 3.8125 -6.9375 3.8125 -5.3125 1.3125 C-2.9375 -0.1875 -2.9375 -0.1875 0 0 Z " fill="#882B36" transform="translate(334.9375,260.1875)"/>
<path d="M0 0 C4.84147489 12.94394319 4.84147489 12.94394319 2.87109375 20.390625 C2 22 2 22 -1 23 C-0.42415568 20.61435923 0.22227595 18.33317216 1 16 C1.50031206 12.58428147 1.50031206 12.58428147 1 9 C-1.1727422 6.36983839 -2.94673788 4.52663106 -6 3 C-9.83936768 2.8578012 -13.32016639 2.82245324 -17 4 C-17 3.34 -17 2.68 -17 2 C-13.87385211 0.9579507 -11.21651825 0.68850626 -7.9375 0.4375 C-6.34228516 0.31181641 -6.34228516 0.31181641 -4.71484375 0.18359375 C-3.14562225 0.07747373 -1.57280564 0 0 0 Z " fill="#B63E44" transform="translate(231,194)"/>
<path d="M0 0 C3 0.125 3 0.125 4 1.125 C4.1875 4.0625 4.1875 4.0625 4 7.125 C3.34 7.785 2.68 8.445 2 9.125 C-2.55555556 8.56944444 -2.55555556 8.56944444 -4 7.125 C-4.125 4.125 -4.125 4.125 -4 1.125 C-3 0.125 -3 0.125 0 0 Z " fill="#3DBFB3" transform="translate(280,200.875)"/>
<path d="M0 0 C1 3 1 3 0 6 C-1.65 6 -3.3 6 -5 6 C-5.33 6.66 -5.66 7.32 -6 8 C-6.66 8 -7.32 8 -8 8 C-8.66 8.66 -9.32 9.32 -10 10 C-10.61875 10.144375 -11.2375 10.28875 -11.875 10.4375 C-14.43169914 11.1142733 -15.97311122 12.33505564 -18 14 C-18.66 13.67 -19.32 13.34 -20 13 C-13.5911193 8.00107305 -7.47183397 3.30484964 0 0 Z " fill="#C6464E" transform="translate(213,168)"/>
<path d="M0 0 C0.66 0 1.32 0 2 0 C2 1.32 2 2.64 2 4 C2.66 4 3.32 4 4 4 C4.66 6.31 5.32 8.62 6 11 C6.62648438 11.12117187 7.25296875 11.24234375 7.8984375 11.3671875 C9.12433594 11.61855469 9.12433594 11.61855469 10.375 11.875 C11.18710937 12.03742188 11.99921875 12.19984375 12.8359375 12.3671875 C15 13 15 13 17 15 C11.06 15.495 11.06 15.495 5 16 C4.16280617 13.70967689 3.3301071 11.41789043 2.5 9.125 C2.14228516 8.14853516 2.14228516 8.14853516 1.77734375 7.15234375 C0 2.2265625 0 2.2265625 0 0 Z " fill="#322532" transform="translate(327,208)"/>
<path d="M0 0 C3.95826931 -0.05880857 7.91642392 -0.09386513 11.875 -0.125 C12.98359375 -0.14175781 14.0921875 -0.15851563 15.234375 -0.17578125 C22.10357957 -0.21618834 28.32861944 0.40092819 35 2 C35.87640137 2.16612793 36.75280273 2.33225586 37.65576172 2.50341797 C40 3 40 3 42 4 C41.34 4.66 40.68 5.32 40 6 C37.93359375 5.828125 37.93359375 5.828125 35.4375 5.25 C34.22900391 4.97929687 34.22900391 4.97929687 32.99609375 4.703125 C31.34133567 4.31478543 29.68793712 3.91977638 28.04174805 3.49658203 C22.00087982 2.01919212 16.14113811 1.58221964 9.9375 1.375 C8.97650391 1.33632812 8.01550781 1.29765625 7.02539062 1.2578125 C4.68377186 1.16461374 2.34213963 1.07880815 0 1 C0 0.67 0 0.34 0 0 Z " fill="#452231" transform="translate(240,159)"/>
<path d="M0 0 C0.8125 2.625 0.8125 2.625 1 5 C0.41412109 4.02740234 0.41412109 4.02740234 -0.18359375 3.03515625 C-1.82605449 0.80633651 -1.82605449 0.80633651 -4.34765625 0.43359375 C-13.47481332 0.44672635 -19.86385677 3.45689102 -27 9 C-25.53563715 4.36285097 -25.53563715 4.36285097 -23.0625 2.6875 C-21 2 -21 2 -18 2 C-17.67 1.01 -17.34 0.02 -17 -1 C-12.06784085 -3.17015003 -4.55111577 -2.89616458 0 0 Z " fill="#442330" transform="translate(309,153)"/>
<path d="M0 0 C0 0.99 0 1.98 0 3 C0.66 3.33 1.32 3.66 2 4 C2 4.99 2 5.98 2 7 C1.34 7 0.68 7 0 7 C0 7.66 0 8.32 0 9 C0.66 9 1.32 9 2 9 C1.67 9.99 1.34 10.98 1 12 C-0.84765625 12.73046875 -0.84765625 12.73046875 -3.0625 13.1875 C-3.79597656 13.34605469 -4.52945313 13.50460938 -5.28515625 13.66796875 C-5.85105469 13.77753906 -6.41695312 13.88710937 -7 14 C-5.43181728 8.547001 -3.96189783 4.23513217 0 0 Z " fill="#E04244" transform="translate(182,196)"/>
<path d="M0 0 C5.70939788 -0.45675183 8.55127459 0.37894444 13 4 C15.48386059 7.72579089 15.3804212 9.58711402 15 14 C13.5625 16.9375 13.5625 16.9375 12 19 C11.67 19 11.34 19 11 19 C11.05800781 18.02417969 11.11601562 17.04835937 11.17578125 16.04296875 C11.22089844 14.77066406 11.26601562 13.49835938 11.3125 12.1875 C11.37050781 10.92292969 11.42851562 9.65835938 11.48828125 8.35546875 C11.36414814 4.86518844 11.36414814 4.86518844 8.6875 3.09375 C5.78120428 1.91095523 3.1108828 1.36173056 0 1 C0 0.67 0 0.34 0 0 Z " fill="#290709" transform="translate(218,196)"/>
<path d="M0 0 C2.37922785 2.37922785 3.1240044 4.44297912 4.375 7.5625 C6.247981 12.18103773 8.20556629 16.73612329 10.30078125 21.2578125 C11 23 11 23 11 25 C10.01 24.67 9.02 24.34 8 24 C7.67 22.02 7.34 20.04 7 18 C6.01 18.33 5.02 18.66 4 19 C3.87882813 18.33613281 3.75765625 17.67226563 3.6328125 16.98828125 C2.76607061 12.4212182 1.77342285 8.30688405 0 4 C0 2.68 0 1.36 0 0 Z " fill="#462635" transform="translate(168,268)"/>
<path d="M0 0 C1.485 0.99 1.485 0.99 3 2 C3 2.66 3 3.32 3 4 C5.64 3.67 8.28 3.34 11 3 C10.34 4.65 9.68 6.3 9 8 C7.02 7.34 5.04 6.68 3 6 C3.33 7.32 3.66 8.64 4 10 C2.68 9.67 1.36 9.34 0 9 C-0.84454356 5.62182575 -1.10844919 3.32534757 0 0 Z " fill="#E54146" transform="translate(215,162)"/>
<path d="M0 0 C2.58484592 0.9804588 3.94843031 1.93922143 5.75 4.0625 C8.50197582 10.52964317 7.36746434 18.49597708 5 25 C2.875 27.5625 2.875 27.5625 1 29 C2.875 23.25 2.875 23.25 4 21 C4.63176984 13.01484353 4.97203167 6.52579156 0 0 Z " fill="#452131" transform="translate(352,227)"/>
<path d="M0 0 C3.36663541 3.27229886 6.39967271 6.63285895 9.3125 10.3125 C13.25981786 15.20028621 17.44977482 19.67294663 22 24 C19 24 19 24 16.51953125 21.8828125 C15.62621094 20.97273438 14.73289063 20.06265625 13.8125 19.125 C12.91144531 18.22007812 12.01039063 17.31515625 11.08203125 16.3828125 C9 14 9 14 9 12 C8.34 12 7.68 12 7 12 C2.52664097 8.3094788 1.18112752 5.47613669 0 0 Z " fill="#492532" transform="translate(179,293)"/>
<path d="M0 0 C1.1446875 0.12375 1.1446875 0.12375 2.3125 0.25 C2.6425 0.91 2.9725 1.57 3.3125 2.25 C1.6625 2.58 0.0125 2.91 -1.6875 3.25 C-1.6875 5.23 -1.6875 7.21 -1.6875 9.25 C0.7875 10.24 0.7875 10.24 3.3125 11.25 C3.3125 11.58 3.3125 11.91 3.3125 12.25 C0.0125 12.25 -3.2875 12.25 -6.6875 12.25 C-5.7109375 0.53125 -5.7109375 0.53125 0 0 Z " fill="#06282D" transform="translate(278.6875,198.75)"/>
<path d="M0 0 C2.22942748 0.14179038 4.45853628 0.28859698 6.6875 0.4375 C7.92886719 0.51871094 9.17023438 0.59992188 10.44921875 0.68359375 C13.38180337 0.94491317 16.13441617 1.34798379 19 2 C15.59336868 4.07182145 12.95164035 4.24183505 9 4.1875 C7.453125 4.17783203 7.453125 4.17783203 5.875 4.16796875 C3.41931318 4.02449792 1.34492245 3.7046041 -1 3 C-0.67 2.01 -0.34 1.02 0 0 Z " fill="#983037" transform="translate(241,326)"/>
<path d="M0 0 C0.66 0.66 1.32 1.32 2 2 C0.68 4.31 -0.64 6.62 -2 9 C-3.65 8.67 -5.3 8.34 -7 8 C-6.875 5.6875 -6.875 5.6875 -6 3 C-2.9375 1.1875 -2.9375 1.1875 0 0 Z " fill="#E14340" transform="translate(282,164)"/>
<path d="M0 0 C2.91517292 1.07401108 4.77810176 1.77810176 7 4 C8.55388482 9.7839046 9.60916459 16.03018701 9 22 C7.48046875 24.19140625 7.48046875 24.19140625 6 26 C6.14308594 24.98679688 6.14308594 24.98679688 6.2890625 23.953125 C6.39992188 23.06109375 6.51078125 22.1690625 6.625 21.25 C6.74101562 20.36828125 6.85703125 19.4865625 6.9765625 18.578125 C7.0024034 15.73562576 6.36979449 14.43750502 5 12 C4.95834635 10.33385392 4.95834635 8.66614608 5 7 C4.70955086 5.65667272 4.39044206 4.31774196 4 3 C2.68 2.67 1.36 2.34 0 2 C0 1.34 0 0.68 0 0 Z " fill="#9F2E33" transform="translate(347,225)"/>
<path d="M0 0 C14.0875 11.5 14.0875 11.5 16 20 C15.34 20 14.68 20 14 20 C12.703125 18.27734375 12.703125 18.27734375 11.25 15.9375 C6.65871176 8.43081216 6.65871176 8.43081216 0 3 C0 2.01 0 1.02 0 0 Z " fill="#8E383F" transform="translate(305,180)"/>
<path d="M0 0 C6.7005185 6.07721445 9.00975929 15.48888931 11 24 C9 23 9 23 8.1484375 20.49609375 C7.89320313 19.48675781 7.63796875 18.47742188 7.375 17.4375 C7.11460937 16.42558594 6.85421875 15.41367188 6.5859375 14.37109375 C6.39257812 13.58863281 6.19921875 12.80617187 6 12 C5.34 12 4.68 12 4 12 C4 11.01 4 10.02 4 9 C3.34 9 2.68 9 2 9 C0.50178941 5.62902617 0 3.79557881 0 0 Z " fill="#8C333B" transform="translate(321,200)"/>
<path d="M0 0 C1.32 0.33 2.64 0.66 4 1 C2.59155282 4.21524305 0.89655214 6.32183868 -1.625 8.75 C-2.57246094 9.67039063 -2.57246094 9.67039063 -3.5390625 10.609375 C-4.02117187 11.06828125 -4.50328125 11.5271875 -5 12 C-5.61328125 10.203125 -5.61328125 10.203125 -6 8 C-4.1875 4.75 -4.1875 4.75 -2 2 C-1.34 2 -0.68 2 0 2 C0 1.34 0 0.68 0 0 Z " fill="#312738" transform="translate(192,176)"/>
<path d="M0 0 C0.99 0.33 1.98 0.66 3 1 C3 1.66 3 2.32 3 3 C3.66 3 4.32 3 5 3 C5.515625 3.680625 6.03125 4.36125 6.5625 5.0625 C8.7762796 7.22474172 8.7762796 7.22474172 11.26171875 7.04296875 C13.53079252 6.77580936 15.75849701 6.44063734 18 6 C16.36730848 7.96026975 15.44978435 8.9065055 12.9140625 9.43359375 C8.9211897 9.44040753 6.54664807 9.30748954 3 7.3125 C0.81831983 4.78993231 0.27391902 3.2870282 0 0 Z " fill="#29070B" transform="translate(211,209)"/>
<path d="M0 0 C2.18975773 3.28463659 2.99806563 6.20696275 4 10 C-0.455 10.495 -0.455 10.495 -5 11 C-5 10.01 -5 9.02 -5 8 C-4.0409375 7.690625 -4.0409375 7.690625 -3.0625 7.375 C-0.65074923 6.10461791 -0.65074923 6.10461791 -0.25 2.875 C-0.1675 1.92625 -0.085 0.9775 0 0 Z " fill="#AC2D2D" transform="translate(327,214)"/>
<path d="M0 0 C0 5.94 0 11.88 0 18 C-0.33 18 -0.66 18 -1 18 C-1.33 13.05 -1.66 8.1 -2 3 C-7.61 2.67 -13.22 2.34 -19 2 C-19 1.67 -19 1.34 -19 1 C-16.58343806 0.83168225 -14.16676951 0.66528738 -11.75 0.5 C-11.06808594 0.45230469 -10.38617188 0.40460938 -9.68359375 0.35546875 C-6.44268497 0.13521281 -3.2506634 0 0 0 Z " fill="#4C252F" transform="translate(260,329)"/>
<path d="M0 0 C0.66 0 1.32 0 2 0 C2.185625 1.2065625 2.185625 1.2065625 2.375 2.4375 C2.58125 3.283125 2.7875 4.12875 3 5 C3.66 5.33 4.32 5.66 5 6 C5.33 5.34 5.66 4.68 6 4 C6 6.31 6 8.62 6 11 C4.02 11.99 2.04 12.98 0 14 C0.185625 12.989375 0.37125 11.97875 0.5625 10.9375 C0.99768247 7.02085773 0.70853021 3.85755337 0 0 Z " fill="#CB383A" transform="translate(233,200)"/>
<path d="M0 0 C0.9796875 0.00515625 1.959375 0.0103125 2.96875 0.015625 C3.9484375 0.01046875 4.928125 0.0053125 5.9375 0 C8.46875 0.265625 8.46875 0.265625 10.46875 2.265625 C10.46875 3.585625 10.46875 4.905625 10.46875 6.265625 C6.83875 5.935625 3.20875 5.605625 -0.53125 5.265625 C-0.53125 4.935625 -0.53125 4.605625 -0.53125 4.265625 C2.43875 4.265625 5.40875 4.265625 8.46875 4.265625 C8.46875 3.605625 8.46875 2.945625 8.46875 2.265625 C4.17875 2.265625 -0.11125 2.265625 -4.53125 2.265625 C-2.53125 0.265625 -2.53125 0.265625 0 0 Z " fill="#AF4952" transform="translate(298.53125,152.734375)"/>
<path d="M0 0 C0.33 0 0.66 0 1 0 C1 1.98 1 3.96 1 6 C0.01 6.33 -0.98 6.66 -2 7 C-2.71108299 8.31018441 -3.37253017 9.64777819 -4 11 C-5.00435972 12.28016835 -6.04690261 13.53128122 -7.125 14.75 C-7.93324219 15.67039062 -7.93324219 15.67039062 -8.7578125 16.609375 C-9.16773438 17.06828125 -9.57765625 17.5271875 -10 18 C-10 14.47961808 -9.39751661 13.90781758 -7.25 11.25 C-4.43582771 7.64892645 -2.17506949 4.0155129 0 0 Z " fill="#442431" transform="translate(323,287)"/>
<path d="M0 0 C1.65 0 3.3 0 5 0 C4.525625 0.763125 4.05125 1.52625 3.5625 2.3125 C1.2235443 6.89111612 1.26043795 11.9528922 1 17 C0.34 17 -0.32 17 -1 17 C-1.02699725 14.72923158 -1.04639453 12.45837179 -1.0625 10.1875 C-1.07990234 8.29064453 -1.07990234 8.29064453 -1.09765625 6.35546875 C-1 3 -1 3 0 0 Z " fill="#CB4347" transform="translate(209,198)"/>
<path d="M0 0 C1.03125 -0.00773438 2.0625 -0.01546875 3.125 -0.0234375 C6.29111368 0.41534456 7.66377097 1.25217651 10 3.375 C9.01 3.87 9.01 3.87 8 4.375 C7.443125 4.065625 6.88625 3.75625 6.3125 3.4375 C3.04845452 1.93780343 0.55573147 2.06309373 -3 2.375 C-6.22590345 3.91463574 -8.60753646 5.73069819 -11 8.375 C-10.68379266 5.45008209 -10.46086571 3.82832819 -8.328125 1.73046875 C-5.38524242 0.01707906 -3.38937785 -0.02542033 0 0 Z " fill="#A5383F" transform="translate(278,194.625)"/>
<path d="M0 0 C4.875 1.75 4.875 1.75 6 4 C6.66 4 7.32 4 8 4 C8 5.32 8 6.64 8 8 C8.99 8 9.98 8 11 8 C11.66 9.65 12.32 11.3 13 13 C9.63002746 11.5384164 7.39254873 9.6619112 4.8125 7.0625 C4.11769531 6.37285156 3.42289063 5.68320312 2.70703125 4.97265625 C1 3 1 3 0 0 Z " fill="#A53940" transform="translate(188,303)"/>
<path d="M0 0 C2.68777802 -0.0544207 5.37443212 -0.09387266 8.0625 -0.125 C8.81466797 -0.14175781 9.56683594 -0.15851563 10.34179688 -0.17578125 C15.29327709 -0.21865121 19.30414451 0.41600625 24 2 C20.61082427 3.0428233 17.52596847 3 14 3 C13.01 3.495 13.01 3.495 12 4 C12 3.34 12 2.68 12 2 C8.04 1.67 4.08 1.34 0 1 C0 0.67 0 0.34 0 0 Z " fill="#BE4045" transform="translate(253,162)"/>
<path d="M0 0 C1.65 0 3.3 0 5 0 C5 0.99 5 1.98 5 3 C5.5775 3.28875 6.155 3.5775 6.75 3.875 C7.4925 4.24625 8.235 4.6175 9 5 C9.680625 5.28875 10.36125 5.5775 11.0625 5.875 C13.38618318 7.22423539 14.5219641 8.78294615 16 11 C15.67 11.66 15.34 12.32 15 13 C14.41992188 12.46890625 13.83984375 11.9378125 13.2421875 11.390625 C8.99187055 7.54710406 4.8193764 4.08934384 0 1 C0 0.67 0 0.34 0 0 Z " fill="#462535" transform="translate(295,172)"/>
<path d="M0 0 C0.66 0.33 1.32 0.66 2 1 C1.34 1.66 0.68 2.32 0 3 C1.98 3 3.96 3 6 3 C3.31158141 5.25245881 1.35358125 6.88213958 -2 8 C-2.33 7.01 -2.66 6.02 -3 5 C-5.01508358 4.26676204 -5.01508358 4.26676204 -7 4 C-1.7265625 0.77734375 -1.7265625 0.77734375 0 0 Z " fill="#B9484E" transform="translate(292,155)"/>
<path d="M0 0 C0.33 0 0.66 0 1 0 C1.08636719 0.66386719 1.17273438 1.32773438 1.26171875 2.01171875 C2.21825737 8.02299359 3.18149408 11.19591638 8 15 C2.57491289 14.39721254 2.57491289 14.39721254 0.28125 12.8125 C-1.57034796 10.1931663 -1.09233845 8.44079713 -0.6875 5.3125 C-0.56761719 4.31863281 -0.44773438 3.32476562 -0.32421875 2.30078125 C-0.21722656 1.54152344 -0.11023438 0.78226563 0 0 Z " fill="#B53E3F" transform="translate(210,204)"/>
<path d="M0 0 C0 1.65 0 3.3 0 5 C-1.65 5 -3.3 5 -5 5 C-5.66 3.35 -6.32 1.7 -7 0 C-4.3333581 -1.33332095 -2.83319697 -0.67102033 0 0 Z " fill="#29D2BE" transform="translate(226,203)"/>
<path d="M0 0 C0.33 0.66 0.66 1.32 1 2 C1.680625 2.268125 2.36125 2.53625 3.0625 2.8125 C7.01513505 4.41037374 10.43473763 6.68213712 14 9 C12 10 12 10 9.9375 9.6875 C8 9 8 9 7 7 C4.97536745 6.34786708 4.97536745 6.34786708 3 6 C3 5.34 3 4.68 3 4 C1.68 4 0.36 4 -1 4 C-0.67 2.68 -0.34 1.36 0 0 Z " fill="#A63C42" transform="translate(285,166)"/>
<path d="M0 0 C1.32 0.66 2.64 1.32 4 2 C4.3125 5.1875 4.3125 5.1875 4 9 C1.5 11.9375 1.5 11.9375 -1 14 C-1 13.34 -1 12.68 -1 12 C-1.99 11.67 -2.98 11.34 -4 11 C-2.35 10.34 -0.7 9.68 1 9 C1 6.69 1 4.38 1 2 C0.34 1.67 -0.32 1.34 -1 1 C-0.67 0.67 -0.34 0.34 0 0 Z " fill="#041D24" transform="translate(226,199)"/>
<path d="M0 0 C2 3 2 3 2 5 C2.66 5 3.32 5 4 5 C4.38922918 6.28745036 4.76098036 7.58019597 5.125 8.875 C5.33382812 9.59429687 5.54265625 10.31359375 5.7578125 11.0546875 C5.83773437 11.69664062 5.91765625 12.33859375 6 13 C5.34 13.66 4.68 14.32 4 15 C3.32243118 13.44219668 2.65840543 11.87849904 2 10.3125 C1.62875 9.44238281 1.2575 8.57226562 0.875 7.67578125 C-0.01870488 4.9427998 -0.16449676 2.85299066 0 0 Z " fill="#B7444A" transform="translate(168,263)"/>
<path d="M0 0 C0.7734375 -0.01417969 1.546875 -0.02835938 2.34375 -0.04296875 C4.5 0.1875 4.5 0.1875 7.5 2.1875 C6.17935547 2.27837891 6.17935547 2.27837891 4.83203125 2.37109375 C3.08986328 2.49677734 3.08986328 2.49677734 1.3125 2.625 C-0.41033203 2.74681641 -0.41033203 2.74681641 -2.16796875 2.87109375 C-5.01598171 3.14153812 -7.71210482 3.56271747 -10.5 4.1875 C-7.32696082 0.71226662 -4.62479363 0.03853995 0 0 Z " fill="#AB464E" transform="translate(160.5,222.8125)"/>
<path d="M0 0 C1 3 1 3 -1 8 C-5.95 8 -10.9 8 -16 8 C-15.67 7.34 -15.34 6.68 -15 6 C-10.71 6 -6.42 6 -2 6 C-1.67 4.35 -1.34 2.7 -1 1 C-0.67 0.67 -0.34 0.34 0 0 Z " fill="#422130" transform="translate(169,216)"/>
<path d="M0 0 C0 1.65 0 3.3 0 5 C-2.31 4.67 -4.62 4.34 -7 4 C-6.6875 2.0625 -6.6875 2.0625 -6 0 C-3 -1 -3 -1 0 0 Z " fill="#26CFBD" transform="translate(284,203)"/>
<path d="M0 0 C5.61 0 11.22 0 17 0 C17 0.33 17 0.66 17 1 C12.38 1 7.76 1 3 1 C2.67 2.65 2.34 4.3 2 6 C1.01 6.495 1.01 6.495 0 7 C0 4.69 0 2.38 0 0 Z " fill="#2C2739" transform="translate(241,331)"/>
<path d="M0 0 C4 0 4 0 7 2 C6.67 3.32 6.34 4.64 6 6 C4.68 6 3.36 6 2 6 C1.34 4.02 0.68 2.04 0 0 Z " fill="#B03A3D" transform="translate(145,250)"/>
<path d="M0 0 C0.99 0.33 1.98 0.66 3 1 C2.01 1.495 2.01 1.495 1 2 C1 2.928125 1 3.85625 1 4.8125 C1 6.875 1 8.9375 1 11 C0.34 10.67 -0.32 10.34 -1 10 C-1.38218767 8.34385343 -1.71395102 6.67542976 -2 5 C-2.33 4.34 -2.66 3.68 -3 3 C-2.01 2.01 -1.02 1.02 0 0 Z M-2 10 C-1.67 11.32 -1.34 12.64 -1 14 C-1.66 14 -2.32 14 -3 14 C-3.33 13.01 -3.66 12.02 -4 11 C-3.34 10.67 -2.68 10.34 -2 10 Z " fill="#011E24" transform="translate(219,200)"/>
<path d="M0 0 C3.54293666 1.86470351 5.77228817 3.09364418 7 7 C7.125 10.25 7.125 10.25 7 13 C6.34 12.34 5.68 11.68 5 11 C5 9.68 5 8.36 5 7 C4.34 7 3.68 7 3 7 C0 2.61538462 0 2.61538462 0 0 Z " fill="#340C0F" transform="translate(283,197)"/>
<path d="M0 0 C0.639375 0.391875 1.27875 0.78375 1.9375 1.1875 C3.2617287 1.55534131 4.59363912 1.89952981 5.9375 2.1875 C5.9375 2.5175 5.9375 2.8475 5.9375 3.1875 C1.9775 3.1875 -1.9825 3.1875 -6.0625 3.1875 C-6.3925 2.5275 -6.7225 1.8675 -7.0625 1.1875 C-2.62182203 -1.03283898 -2.62182203 -1.03283898 0 0 Z " fill="#AA292D" transform="translate(162.0625,258.8125)"/>
<path d="M0 0 C0.33 0.99 0.66 1.98 1 3 C-2.3 3 -5.6 3 -9 3 C-9 2.34 -9 1.68 -9 1 C-6.04335481 -0.4783226 -3.25770263 -0.06032783 0 0 Z " fill="#D14546" transform="translate(202,154)"/>
<path d="M0 0 C1.98 0.66 3.96 1.32 6 2 C5.01 2.33 4.02 2.66 3 3 C3 3.99 3 4.98 3 6 C3.99 6.33 4.98 6.66 6 7 C5.01 7.495 5.01 7.495 4 8 C1.375 7.0625 1.375 7.0625 -1 6 C-0.67 4.02 -0.34 2.04 0 0 Z " fill="#AF4248" transform="translate(202,153)"/>
<path d="M0 0 C0.99 0 1.98 0 3 0 C1.4169423 4.2742558 -1.50568404 6.26531794 -5 9 C-5.66 8.34 -6.32 7.68 -7 7 C-6.21625 6.5875 -5.4325 6.175 -4.625 5.75 C-1.94108344 3.9607223 -1.11901051 2.95011861 0 0 Z " fill="#A12825" transform="translate(303,307)"/>
<path d="M0 0 C3.81051307 1.75567028 5.31622521 3.04312923 7 7 C7.23803601 10.01849924 7.17767861 12.97946367 7 16 C6.67 16 6.34 16 6 16 C5.9071875 14.2675 5.9071875 14.2675 5.8125 12.5 C5.22381018 7.50505606 2.89336907 4.01441612 0 0 Z " fill="#322332" transform="translate(352,227)"/>
<path d="M0 0 C0.66 0.66 1.32 1.32 2 2 C-0.43969017 6.78902145 -1.97529326 9.62722182 -7 12 C-6.34 10.68 -5.68 9.36 -5 8 C-4.34 8 -3.68 8 -3 8 C-2.814375 6.576875 -2.814375 6.576875 -2.625 5.125 C-2 2 -2 2 0 0 Z " fill="#9F282A" transform="translate(314,295)"/>
<path d="M0 0 C3.53647504 1.67517239 4.7911563 2.49280817 6.3125 6.1875 C6.539375 7.115625 6.76625 8.04375 7 9 C6.34 9 5.68 9 5 9 C3.7109375 7.5390625 3.7109375 7.5390625 2.375 5.625 C1.92898438 4.99851563 1.48296875 4.37203125 1.0234375 3.7265625 C0 2 0 2 0 0 Z " fill="#9F373F" transform="translate(314,191)"/>
<path d="M0 0 C0.99 0 1.98 0 3 0 C4.61949011 2.57213134 5.04408751 3.67669159 4.625 6.75 C4.41875 7.4925 4.2125 8.235 4 9 C1.49701566 6.06171403 0.53069061 3.82097239 0 0 Z " fill="#323D48" transform="translate(128,340)"/>
<path d="M0 0 C-0.3125 1.9375 -0.3125 1.9375 -1 4 C-1.99 4.33 -2.98 4.66 -4 5 C-4.66 5.99 -5.32 6.98 -6 8 C-6.33 7.01 -6.66 6.02 -7 5 C-2.25 0 -2.25 0 0 0 Z " fill="#2F090C" transform="translate(218,197)"/>
<path d="M0 0 C0 0.33 0 0.66 0 1 C-1.65 1 -3.3 1 -5 1 C-5.33 2.65 -5.66 4.3 -6 6 C-6.99 5.34 -7.98 4.68 -9 4 C-9 3.34 -9 2.68 -9 2 C-9.66 1.67 -10.32 1.34 -11 1 C-7.26562152 0.12132271 -3.83225427 -0.08912219 0 0 Z " fill="#D43E43" transform="translate(248,162)"/>
<path d="M0 0 C0.99 0 1.98 0 3 0 C2.43628586 3.26954202 1.50037734 4.82575883 -1 7 C-1.99 6.67 -2.98 6.34 -4 6 C-2.1875 3 -2.1875 3 0 0 Z " fill="#2E4250" transform="translate(135,145)"/>
<path d="M0 0 C0.99 0.33 1.98 0.66 3 1 C2.34 1.66 1.68 2.32 1 3 C0.2884375 3.804375 0.2884375 3.804375 -0.4375 4.625 C-2 6 -2 6 -5 6 C-3.63016497 2.83884224 -3.0109362 2.0072908 0 0 Z " fill="#DF4645" transform="translate(320,226)"/>
<path d="M0 0 C2.31 0 4.62 0 7 0 C5.1875 2 5.1875 2 3 4 C2.01 4 1.02 4 0 4 C0 2.68 0 1.36 0 0 Z " fill="#AB2324" transform="translate(168,257)"/>
<path d="M0 0 C0.66 0.33 1.32 0.66 2 1 C1.67 1.99 1.34 2.98 1 4 C2.32 4.33 3.64 4.66 5 5 C5 5.33 5 5.66 5 6 C2.36 6 -0.28 6 -3 6 C-2.01 4.02 -1.02 2.04 0 0 Z " fill="#D53E3F" transform="translate(171,219)"/>
<path d="M0 0 C0.99 0.33 1.98 0.66 3 1 C3.875 2.8125 3.875 2.8125 4 5 C2.5625 7.25 2.5625 7.25 1 9 C0.34 8.67 -0.32 8.34 -1 8 C-0.67 7.67 -0.34 7.34 0 7 C0.04092937 4.66702567 0.04241723 2.33294775 0 0 Z " fill="#0A3438" transform="translate(283,201)"/>
<path d="M0 0 C0.99 0 1.98 0 3 0 C3.185625 1.2065625 3.185625 1.2065625 3.375 2.4375 C3.58125 3.283125 3.7875 4.12875 4 5 C4.66 5.33 5.32 5.66 6 6 C5.01 6.66 4.02 7.32 3 8 C2.01 5.36 1.02 2.72 0 0 Z " fill="#C53B3F" transform="translate(177,284)"/>
<path d="M0 0 C5.94 1.485 5.94 1.485 12 3 C12 3.33 12 3.66 12 4 C6.140625 4.390625 6.140625 4.390625 4 4 C2.68 2.68 1.36 1.36 0 0 Z " fill="#240405" transform="translate(270,214)"/>
<path d="M0 0 C1.9375 0.75 1.9375 0.75 4 2 C4.75 4.125 4.75 4.125 5 6 C3.68 5.67 2.36 5.34 1 5 C0.67 3.35 0.34 1.7 0 0 Z " fill="#D83C42" transform="translate(214,166)"/>
<path d="M0 0 C2.475 0.495 2.475 0.495 5 1 C5 1.99 5 2.98 5 4 C4.34 4 3.68 4 3 4 C2.67 4.66 2.34 5.32 2 6 C1.34 4.02 0.68 2.04 0 0 Z " fill="#D23D40" transform="translate(168,262)"/>
<path d="M0 0 C0.66 0.33 1.32 0.66 2 1 C1.34 2.65 0.68 4.3 0 6 C-1.32 6 -2.64 6 -4 6 C-2.84826645 3.53199953 -1.95216435 1.95216435 0 0 Z " fill="#E24047" transform="translate(200,177)"/>
</svg>
